<svg width="40" height="40" viewBox="0 0 40 40" fill="none" xmlns="http://www.w3.org/2000/svg">
<path d="M21.6663 15.0002H18.333V11.6668C18.333 11.2248 18.1574 10.8009 17.8449 10.4883C17.5323 10.1758 17.1084 10.0002 16.6663 10.0002C16.2243 10.0002 15.8004 10.1758 15.4878 10.4883C15.1753 10.8009 14.9997 11.2248 14.9997 11.6668V15.0002H11.6663C11.2243 15.0002 10.8004 15.1758 10.4878 15.4883C10.1753 15.8009 9.99967 16.2248 9.99967 16.6668C9.99967 17.1089 10.1753 17.5328 10.4878 17.8453C10.8004 18.1579 11.2243 18.3335 11.6663 18.3335H14.9997V21.6668C14.9997 22.1089 15.1753 22.5328 15.4878 22.8453C15.8004 23.1579 16.2243 23.3335 16.6663 23.3335C17.1084 23.3335 17.5323 23.1579 17.8449 22.8453C18.1574 22.5328 18.333 22.1089 18.333 21.6668V18.3335H21.6663C22.1084 18.3335 22.5323 18.1579 22.8449 17.8453C23.1574 17.5328 23.333 17.1089 23.333 16.6668C23.333 16.2248 23.1574 15.8009 22.8449 15.4883C22.5323 15.1758 22.1084 15.0002 21.6663 15.0002ZM29.9997 25.0002V8.3335C29.9997 7.00741 29.4729 5.73564 28.5352 4.79796C27.5975 3.86028 26.3258 3.3335 24.9997 3.3335H8.33301C7.00693 3.3335 5.73516 3.86028 4.79747 4.79796C3.85979 5.73564 3.33301 7.00741 3.33301 8.3335V25.0002C3.33301 26.3262 3.85979 27.598 4.79747 28.5357C5.73516 29.4734 7.00693 30.0002 8.33301 30.0002H24.9997C26.3258 30.0002 27.5975 29.4734 28.5352 28.5357C29.4729 27.598 29.9997 26.3262 29.9997 25.0002ZM6.66634 25.0002V8.3335C6.66634 7.89147 6.84194 7.46755 7.1545 7.15499C7.46706 6.84242 7.89098 6.66683 8.33301 6.66683H24.9997C25.4417 6.66683 25.8656 6.84242 26.1782 7.15499C26.4907 7.46755 26.6663 7.89147 26.6663 8.3335V25.0002C26.6663 25.4422 26.4907 25.8661 26.1782 26.1787C25.8656 26.4912 25.4417 26.6668 24.9997 26.6668H8.33301C7.89098 26.6668 7.46706 26.4912 7.1545 26.1787C6.84194 25.8661 6.66634 25.4422 6.66634 25.0002ZM34.9997 10.0002C34.5576 10.0002 34.1337 10.1758 33.8212 10.4883C33.5086 10.8009 33.333 11.2248 33.333 11.6668V28.3335C33.333 29.6596 32.8062 30.9314 31.8685 31.869C30.9309 32.8067 29.6591 33.3335 28.333 33.3335H11.6663C11.2243 33.3335 10.8004 33.5091 10.4878 33.8217C10.1753 34.1342 9.99967 34.5581 9.99967 35.0002C9.99967 35.4422 10.1753 35.8661 10.4878 36.1787C10.8004 36.4912 11.2243 36.6668 11.6663 36.6668H28.333C30.5431 36.6668 32.6628 35.7889 34.2256 34.2261C35.7884 32.6632 36.6663 30.5436 36.6663 28.3335V11.6668C36.6663 11.2248 36.4907 10.8009 36.1782 10.4883C35.8656 10.1758 35.4417 10.0002 34.9997 10.0002Z" fill="#73D700"/>
</svg>
