<svg width="24" height="24" viewBox="0 0 24 24" fill="none" xmlns="http://www.w3.org/2000/svg">
<path d="M8.76083 19.8621H8.1178C7.90601 19.8628 7.69761 19.8089 7.51267 19.7057C7.32772 19.6025 7.17245 19.4534 7.0618 19.2728C6.95002 19.0929 6.88637 18.8873 6.87695 18.6757C6.86753 18.4642 6.91266 18.2537 7.008 18.0646L8.94124 14.1981L4.47476 14.1087L4.03118 15.1059C3.91688 15.3669 3.71576 15.5802 3.46201 15.7096C3.20825 15.8391 2.91751 15.8767 2.63918 15.816C2.36001 15.7588 2.10935 15.6065 1.92992 15.3851C1.75048 15.1637 1.65339 14.8869 1.65518 14.6019V9.39891C1.65347 9.114 1.75048 8.83729 1.92971 8.61581C2.10895 8.39434 2.35934 8.24176 2.63835 8.18402C2.91668 8.12337 3.20743 8.16097 3.46118 8.29041C3.71494 8.41985 3.91605 8.63316 4.03035 8.89408L4.47393 9.89133L8.94042 9.80195L7.00718 5.93464C6.91187 5.74561 6.86683 5.53524 6.8764 5.32376C6.88597 5.11229 6.94981 4.90684 7.0618 4.72719C7.17239 4.54655 7.32765 4.39744 7.51261 4.29423C7.69757 4.19103 7.90599 4.1372 8.1178 4.13795H8.76083C9.20276 4.13795 9.61821 4.31009 9.93104 4.62291L14.9868 9.67864L19.8406 9.55036H19.8968C20.5407 9.55036 21.1473 9.79781 21.6091 10.2497C22.0841 10.7139 22.3448 11.3363 22.3448 12C22.3448 12.6637 22.0841 13.2861 21.6091 13.7504C21.1349 14.2155 20.5117 14.4505 19.8455 14.4497L14.9868 14.3214L9.93104 19.3771C9.61821 19.6899 9.20276 19.8621 8.76083 19.8621ZM3.94097 12.4428H3.95752L10.2836 12.5694C10.4233 12.5721 10.56 12.6101 10.681 12.6799C10.802 12.7497 10.9034 12.849 10.9757 12.9686C11.048 13.0881 11.0888 13.224 11.0944 13.3636C11.1 13.5032 11.0702 13.642 11.0077 13.7669L8.81462 18.1531L14.069 12.8988C14.2295 12.7391 14.4497 12.6579 14.6756 12.6563L19.8844 12.7937C19.9896 12.799 20.0947 12.7816 20.1925 12.7426C20.2903 12.7036 20.3786 12.6439 20.4513 12.5677C20.5272 12.4938 20.5874 12.4054 20.6285 12.3078C20.6697 12.2102 20.6908 12.1053 20.6907 11.9994C20.6907 11.8935 20.6694 11.7887 20.6281 11.6911C20.5868 11.5936 20.5264 11.5053 20.4505 11.4315C20.3765 11.3563 20.2877 11.2973 20.1896 11.2584C20.0916 11.2195 19.9865 11.2015 19.8811 11.2055L14.6748 11.3429C14.5624 11.3466 14.4505 11.3269 14.3461 11.2852C14.2417 11.2434 14.147 11.1805 14.0681 11.1004L8.8138 5.84609L11.0069 10.2323C11.0694 10.3572 11.0992 10.496 11.0936 10.6356C11.088 10.7752 11.0471 10.9111 10.9749 11.0306C10.9026 11.1502 10.8012 11.2495 10.6802 11.3193C10.5592 11.3891 10.4224 11.4271 10.2828 11.4298L3.95669 11.5564C3.68028 11.5407 3.46842 11.4522 3.31035 11.2651V12.7341C3.38807 12.6427 3.48473 12.5694 3.59361 12.5191C3.7025 12.4688 3.82102 12.4427 3.94097 12.4428Z" fill="#333333"/>
</svg>
