<svg width="40" height="40" viewBox="0 0 40 40" fill="none" xmlns="http://www.w3.org/2000/svg">
<path d="M31.6663 26.6668C30.6774 26.6668 29.7107 26.9601 28.8885 27.5095C28.0662 28.0589 27.4254 28.8398 27.0469 29.7534C26.6685 30.667 26.5695 31.6724 26.7624 32.6423C26.9553 33.6122 27.4315 34.5031 28.1308 35.2024C28.8301 35.9016 29.721 36.3778 30.6909 36.5708C31.6608 36.7637 32.6661 36.6647 33.5798 36.2862C34.4934 35.9078 35.2743 35.2669 35.8237 34.4447C36.3731 33.6224 36.6663 32.6557 36.6663 31.6668C36.6663 30.3407 36.1396 29.069 35.2019 28.1313C34.2642 27.1936 32.9924 26.6668 31.6663 26.6668ZM31.6663 33.3335C31.3367 33.3335 31.0145 33.2358 30.7404 33.0526C30.4663 32.8695 30.2527 32.6092 30.1265 32.3046C30.0004 32.0001 29.9674 31.665 30.0317 31.3417C30.096 31.0184 30.2547 30.7214 30.4878 30.4883C30.7209 30.2552 31.0179 30.0965 31.3412 30.0322C31.6645 29.9679 31.9996 30.0009 32.3041 30.127C32.6087 30.2532 32.869 30.4668 33.0521 30.7409C33.2353 31.015 33.333 31.3372 33.333 31.6668C33.333 32.1089 33.1574 32.5328 32.8449 32.8453C32.5323 33.1579 32.1084 33.3335 31.6663 33.3335ZM14.9997 26.6668C14.0108 26.6668 13.0441 26.9601 12.2218 27.5095C11.3996 28.0589 10.7587 28.8398 10.3803 29.7534C10.0018 30.667 9.90282 31.6724 10.0957 32.6423C10.2887 33.6122 10.7649 34.5031 11.4641 35.2024C12.1634 35.9016 13.0543 36.3778 14.0242 36.5708C14.9941 36.7637 15.9995 36.6647 16.9131 36.2862C17.8267 35.9078 18.6076 35.2669 19.157 34.4447C19.7064 33.6224 19.9997 32.6557 19.9997 31.6668C19.9997 30.3407 19.4729 29.069 18.5352 28.1313C17.5975 27.1936 16.3258 26.6668 14.9997 26.6668ZM14.9997 33.3335C14.67 33.3335 14.3478 33.2358 14.0737 33.0526C13.7996 32.8695 13.586 32.6092 13.4599 32.3046C13.3337 32.0001 13.3007 31.665 13.365 31.3417C13.4293 31.0184 13.5881 30.7214 13.8212 30.4883C14.0543 30.2552 14.3512 30.0965 14.6745 30.0322C14.9978 29.9679 15.3329 30.0009 15.6375 30.127C15.942 30.2532 16.2023 30.4668 16.3855 30.7409C16.5686 31.015 16.6663 31.3372 16.6663 31.6668C16.6663 32.1089 16.4907 32.5328 16.1782 32.8453C15.8656 33.1579 15.4417 33.3335 14.9997 33.3335ZM36.6663 14.1668C36.6619 11.295 35.5192 8.54206 33.4885 6.51137C31.4578 4.48069 28.7048 3.3379 25.833 3.3335H24.9997C24.5576 3.3335 24.1337 3.50909 23.8212 3.82165C23.5086 4.13421 23.333 4.55814 23.333 5.00016V13.3335H12.533L10.4497 7.75016C10.3305 7.43116 10.1164 7.15633 9.83635 6.96264C9.55625 6.76896 9.22355 6.66572 8.88301 6.66683H4.99967C4.55765 6.66683 4.13372 6.84242 3.82116 7.15499C3.5086 7.46755 3.33301 7.89147 3.33301 8.3335C3.33301 8.77552 3.5086 9.19945 3.82116 9.51201C4.13372 9.82457 4.55765 10.0002 4.99967 10.0002H7.73301L9.81634 15.6168L10.6663 17.9002V18.0502C11.4428 20.112 12.8349 21.885 14.6538 23.1283C16.4726 24.3717 18.63 25.0252 20.833 25.0002H25.833C27.2563 25.0024 28.666 24.7236 29.9813 24.18C31.2967 23.6363 32.4918 22.8385 33.4982 21.832C34.5046 20.8256 35.3025 19.6305 35.8462 18.3152C36.3898 16.9998 36.6685 15.5901 36.6663 14.1668ZM31.133 19.4668C30.4389 20.1657 29.6131 20.72 28.7033 21.0976C27.7936 21.4752 26.818 21.6687 25.833 21.6668H20.833C19.3432 21.6714 17.8863 21.2292 16.6503 20.3973C15.4144 19.5654 14.4563 18.3821 13.8997 17.0002C13.8924 16.9672 13.8924 16.9331 13.8997 16.9002L13.7663 16.6668H32.8997C32.5363 17.7247 31.9314 18.6834 31.133 19.4668ZM26.6663 13.3335V6.66683C28.3736 6.8449 29.9678 7.6045 31.1816 8.81827C32.3953 10.0321 33.1549 11.6262 33.333 13.3335H26.6663Z" fill="#73D700"/>
</svg>
