<svg width="40" height="40" viewBox="0 0 40 40" fill="none" xmlns="http://www.w3.org/2000/svg">
<path fill-rule="evenodd" clip-rule="evenodd" d="M1.66699 8.33341C1.66699 7.41294 2.41318 6.66675 3.33366 6.66675C4.25413 6.66675 5.00033 7.41294 5.00033 8.33341V23.3334H12.4966C9.27663 23.3314 6.66699 20.7205 6.66699 17.5001C6.66699 14.2784 9.27866 11.6667 12.5003 11.6667C14.1326 11.6667 15.6082 12.3371 16.667 13.4176V10.0001H30.0003C31.8763 10.0001 33.6076 10.62 35.0003 11.6661V8.33341C35.0003 7.41294 35.7465 6.66675 36.667 6.66675C37.5875 6.66675 38.3337 7.41294 38.3337 8.33341V31.6667C38.3337 32.5872 37.5875 33.3334 36.667 33.3334C35.7465 33.3334 35.0003 32.5872 35.0003 31.6667V26.6667L5.00033 26.6667V31.6667C5.00033 32.5872 4.25413 33.3334 3.33366 33.3334C2.41318 33.3334 1.66699 32.5872 1.66699 31.6667V8.33341ZM35.0003 23.3334V18.3334C35.0003 15.572 32.7617 13.3334 30.0003 13.3334H20.0003V23.3334H35.0003ZM12.5041 23.3334C14.1348 23.3324 15.609 22.6622 16.667 21.5826V23.3334H12.5041ZM10.0003 17.5001C10.0003 16.1194 11.1196 15.0001 12.5003 15.0001C13.881 15.0001 15.0003 16.1194 15.0003 17.5001C15.0003 18.8808 13.881 20.0001 12.5003 20.0001C11.1196 20.0001 10.0003 18.8808 10.0003 17.5001Z" fill="#73D700"/>
</svg>
