<svg width="24" height="24" viewBox="0 0 24 24" fill="none" xmlns="http://www.w3.org/2000/svg">
<path fill-rule="evenodd" clip-rule="evenodd" d="M1 5C1 4.44772 1.44772 4 2 4C2.55228 4 3 4.44772 3 5V14H7.49774C5.56578 13.9988 4 12.4322 4 10.5C4 8.567 5.567 7 7.5 7C8.47934 7 9.36474 7.40223 10 8.05051V6H18C19.1256 6 20.1643 6.37194 21 6.99963V5C21 4.44772 21.4477 4 22 4C22.5523 4 23 4.44772 23 5V19C23 19.5523 22.5523 20 22 20C21.4477 20 21 19.5523 21 19V16L3 16V19C3 19.5523 2.55228 20 2 20C1.44772 20 1 19.5523 1 19V5ZM21 14V11C21 9.34315 19.6569 8 18 8H12V14H21ZM7.50226 14C8.48071 13.9994 9.36523 13.5973 10 12.9495V14H7.50226ZM6 10.5C6 9.67157 6.67157 9 7.5 9C8.32843 9 9 9.67157 9 10.5C9 11.3284 8.32843 12 7.5 12C6.67157 12 6 11.3284 6 10.5Z" fill="#333333"/>
</svg>
