<svg width="40" height="40" viewBox="0 0 40 40" fill="none" xmlns="http://www.w3.org/2000/svg">
<g clip-path="url(#clip0_187_8670)">
<path d="M33.8531 18.4824L33.605 15.6426H37.2305C37.5961 15.6426 37.9467 15.4974 38.2052 15.2389C38.4638 14.9803 38.609 14.6297 38.609 14.2641V11.5071C38.609 11.1414 38.4638 10.7908 38.2052 10.5323C37.9467 10.2738 37.5961 10.1285 37.2305 10.1285C36.8649 10.1285 36.5142 10.2738 36.2557 10.5323C35.9972 10.7908 35.8519 11.1414 35.8519 11.5071V12.8856H33.3568L33.0949 10.0045C33.0638 9.66077 32.905 9.34122 32.6498 9.10896C32.3945 8.8767 32.0615 8.74861 31.7164 8.75001H27.5808C27.2152 8.75001 26.8646 8.89525 26.6061 9.15377C26.3475 9.41229 26.2023 9.76293 26.2023 10.1285C26.2023 10.4941 26.3475 10.8448 26.6061 11.1033C26.8646 11.3618 27.2152 11.5071 27.5808 11.5071H30.4619V12.1136L21.3775 20.0677L20.8674 15.6426H22.0667C22.4323 15.6426 22.783 15.4974 23.0415 15.2389C23.3 14.9803 23.4453 14.6297 23.4453 14.2641C23.4453 13.8985 23.3 13.5479 23.0415 13.2893C22.783 13.0308 22.4323 12.8856 22.0667 12.8856H16.5526C16.187 12.8856 15.8364 13.0308 15.5779 13.2893C15.3194 13.5479 15.1741 13.8985 15.1741 14.2641C15.1741 14.6297 15.3194 14.9803 15.5779 15.2389C15.8364 15.4974 16.187 15.6426 16.5526 15.6426H18.0966V16.1389L11.7003 20.4123C10.6012 19.3425 9.17675 18.6698 7.65236 18.5008C6.12797 18.3317 4.59074 18.6759 3.284 19.4789C1.97726 20.2819 0.975674 21.4978 0.437782 22.9341C-0.10011 24.3704 -0.143575 25.9451 0.314268 27.4089C0.77211 28.8727 1.7051 30.142 2.96556 31.0159C4.22601 31.8897 5.74192 32.3182 7.27331 32.2335C8.80471 32.1488 10.2641 31.5557 11.4205 30.5482C12.5769 29.5406 13.3642 28.1762 13.6578 26.6708H16.8146C17.0217 27.2797 17.368 27.832 17.8259 28.2836C18.2839 28.7352 18.8409 29.0738 19.4526 29.2725C20.0644 29.4711 20.714 29.5243 21.35 29.4279C21.9859 29.3315 22.5905 29.088 23.1159 28.7169C23.6412 28.3458 24.0728 27.8573 24.3762 27.2902C24.6797 26.7231 24.8467 26.093 24.8639 25.45C24.8812 24.8071 24.7482 24.1689 24.4756 23.5864C24.203 23.0038 23.7983 22.4928 23.2936 22.0941L30.8341 15.491L31.1236 18.7167C29.4883 19.2082 28.0936 20.2892 27.2098 21.7503C26.326 23.2114 26.016 24.9486 26.3399 26.6252C26.6639 28.3018 27.5986 29.7984 28.963 30.8252C30.3275 31.8519 32.0245 32.3356 33.7252 32.1825C35.426 32.0295 37.0093 31.2505 38.1685 29.9967C39.3277 28.7428 39.9802 27.1033 39.9996 25.3958C40.0189 23.6883 39.4037 22.0344 38.2733 20.7546C37.1428 19.4748 35.5775 18.6602 33.8807 18.4686L33.8531 18.4824ZM18.8272 21.6254C17.8843 22.1014 17.1592 22.9202 16.8008 23.9137H13.6578C13.5717 23.4987 13.4471 23.0925 13.2856 22.7006L18.5377 19.1992L18.8272 21.6254ZM6.903 29.4278C5.80618 29.4278 4.75428 28.9921 3.97871 28.2166C3.20315 27.441 2.76744 26.3891 2.76744 25.2923C2.76744 24.1954 3.20315 23.1436 3.97871 22.368C4.75428 21.5924 5.80618 21.1567 6.903 21.1567C7.79466 21.1637 8.6602 21.4586 9.37055 21.9976L6.14481 24.1481C5.98344 24.2435 5.84321 24.3708 5.73272 24.5223C5.62223 24.6737 5.54378 24.8461 5.50219 25.0289C5.46059 25.2117 5.45672 25.401 5.4908 25.5854C5.52488 25.7697 5.59621 25.9452 5.70041 26.101C5.80462 26.2569 5.93951 26.3898 6.09685 26.4917C6.25419 26.5937 6.43066 26.6624 6.61548 26.6938C6.8003 26.7252 6.98958 26.7186 7.17175 26.6743C7.35392 26.6301 7.52515 26.5491 7.67497 26.4364L10.9007 24.2859C10.9878 24.6144 11.0341 24.9524 11.0386 25.2923C11.0386 26.3891 10.6029 27.441 9.82728 28.2166C9.05172 28.9921 7.99982 29.4278 6.903 29.4278ZM20.6882 26.6708C20.4156 26.6708 20.149 26.5899 19.9223 26.4385C19.6957 26.287 19.519 26.0717 19.4146 25.8198C19.3103 25.5679 19.283 25.2907 19.3362 25.0233C19.3894 24.7559 19.5207 24.5103 19.7134 24.3175C19.9062 24.1247 20.1519 23.9934 20.4193 23.9402C20.6867 23.887 20.9639 23.9143 21.2157 24.0187C21.4676 24.123 21.6829 24.2997 21.8344 24.5264C21.9859 24.7531 22.0667 25.0196 22.0667 25.2923C22.0667 25.6579 21.9215 26.0085 21.663 26.267C21.4045 26.5256 21.0538 26.6708 20.6882 26.6708ZM33.0949 29.4278C32.1551 29.423 31.245 29.0982 30.5145 28.507C29.784 27.9158 29.2766 27.0934 29.076 26.1752C28.8754 25.2571 28.9934 24.298 29.4107 23.456C29.828 22.6139 30.5197 21.9391 31.3718 21.5427L31.7164 25.4163C31.7474 25.76 31.9063 26.0796 32.1615 26.3118C32.4167 26.5441 32.7498 26.6722 33.0949 26.6708H33.219C33.4003 26.6552 33.5767 26.6039 33.7381 26.5198C33.8994 26.4357 34.0426 26.3205 34.1592 26.1808C34.2758 26.0411 34.3636 25.8797 34.4175 25.7059C34.4715 25.5321 34.4905 25.3494 34.4734 25.1682L34.115 21.2946C35.0828 21.5507 35.9248 22.1493 36.4848 22.9791C37.0448 23.809 37.2848 24.8138 37.1602 25.8071C37.0356 26.8005 36.5549 27.7149 35.8073 28.3807C35.0597 29.0466 34.096 29.4186 33.0949 29.4278Z" fill="#73D700"/>
</g>
<defs>
<clipPath id="clip0_187_8670">
<rect width="40" height="40" fill="white"/>
</clipPath>
</defs>
</svg>
