<svg width="24" height="24" viewBox="0 0 24 24" fill="none" xmlns="http://www.w3.org/2000/svg">
<path d="M22.2 6.79999C22.2 5.39999 21.2 4.29999 20.1 4.29999H3.89999C2.69999 4.29999 1.79999 5.39999 1.79999 6.79999V8.29999C1.79999 8.79999 1.89999 9.39999 2.19999 9.79999C1.89999 10.2 1.79999 10.8 1.79999 11.3V17.3C1.79999 18.7 2.79999 19.8 3.89999 19.8H20.1C21.3 19.8 22.2 18.7 22.2 17.3V15.8C22.2 15.3 22.1 14.7 21.8 14.3C22.1 13.9 22.2 13.3 22.2 12.8V6.79999ZM3.49999 11.2C3.49999 10.9 3.69999 10.7 3.89999 10.7H11.4C11.6 10.7 11.9 10.6 12 10.4C12.2 10.2 12.2 9.99999 12.2 9.69999C12.2 9.39999 12.2 9.19999 12 9.09999C11.8 8.89999 11.6 8.79999 11.4 8.79999H3.89999C3.69999 8.79999 3.49999 8.59999 3.49999 8.29999V6.79999C3.49999 6.49999 3.69999 6.29999 3.89999 6.29999H20.1C20.3 6.29999 20.5 6.49999 20.5 6.79999V12.8C20.5 13.1 20.3 13.3 20.1 13.3H11.3C11.1 13.3 10.8 13.4 10.7 13.6C10.5 13.8 10.5 14 10.5 14.3C10.5 14.6 10.6 14.8 10.7 15C10.9 15.2 11.1 15.3 11.3 15.3H20.1C20.3 15.3 20.5 15.5 20.5 15.8V17.3C20.5 17.6 20.3 17.8 20.1 17.8H3.89999C3.69999 17.8 3.49999 17.6 3.49999 17.3V11.2Z" fill="#333333"/>
</svg>
