<svg width="40" height="40" viewBox="0 0 40 40" fill="none" xmlns="http://www.w3.org/2000/svg">
<path fill-rule="evenodd" clip-rule="evenodd" d="M6.6665 13.3333C5.74603 13.3333 4.99984 14.0795 4.99984 15V31.6667C4.99984 32.5871 5.74603 33.3333 6.6665 33.3333H33.3332C34.2536 33.3333 34.9998 32.5871 34.9998 31.6667V15C34.9998 14.0795 34.2536 13.3333 33.3332 13.3333H6.6665ZM1.6665 15C1.6665 12.2386 3.90508 10 6.6665 10H33.3332C36.0946 10 38.3332 12.2386 38.3332 15V31.6667C38.3332 34.4281 36.0946 36.6667 33.3332 36.6667H6.6665C3.90508 36.6667 1.6665 34.4281 1.6665 31.6667V15Z" fill="#73D700"/>
<path fill-rule="evenodd" clip-rule="evenodd" d="M13.131 4.79784C14.0687 3.86016 15.3404 3.33337 16.6665 3.33337H23.3332C24.6593 3.33337 25.931 3.86016 26.8687 4.79784C27.8064 5.73552 28.3332 7.00729 28.3332 8.33337V35C28.3332 35.9205 27.587 36.6667 26.6665 36.6667C25.746 36.6667 24.9998 35.9205 24.9998 35V8.33337C24.9998 7.89135 24.8242 7.46742 24.5117 7.15486C24.1991 6.8423 23.7752 6.66671 23.3332 6.66671H16.6665C16.2245 6.66671 15.8006 6.8423 15.488 7.15486C15.1754 7.46742 14.9998 7.89135 14.9998 8.33337V35C14.9998 35.9205 14.2536 36.6667 13.3332 36.6667C12.4127 36.6667 11.6665 35.9205 11.6665 35V8.33337C11.6665 7.00729 12.1933 5.73552 13.131 4.79784Z" fill="#73D700"/>
</svg>
