<svg width="24" height="24" viewBox="0 0 24 24" fill="none" xmlns="http://www.w3.org/2000/svg">
<path d="M11.44 2C8.87638 2.00731 6.41349 2.99891 4.56 4.77V3C4.56 2.73478 4.45464 2.48043 4.2671 2.29289C4.07957 2.10536 3.82521 2 3.56 2C3.29478 2 3.04043 2.10536 2.85289 2.29289C2.66535 2.48043 2.56 2.73478 2.56 3V7.5C2.56 7.76522 2.66535 8.01957 2.85289 8.20711C3.04043 8.39464 3.29478 8.5 3.56 8.5H8.06C8.32521 8.5 8.57957 8.39464 8.7671 8.20711C8.95464 8.01957 9.06 7.76522 9.06 7.5C9.06 7.23478 8.95464 6.98043 8.7671 6.79289C8.57957 6.60536 8.32521 6.5 8.06 6.5H5.66C6.57171 5.53701 7.7085 4.81576 8.96813 4.40114C10.2277 3.98651 11.5707 3.89152 12.8761 4.1247C14.1816 4.35788 15.4086 4.91193 16.4468 5.73699C17.485 6.56205 18.3018 7.63226 18.8237 8.85133C19.3457 10.0704 19.5564 11.4001 19.4369 12.7208C19.3174 14.0415 18.8715 15.3118 18.1392 16.4174C17.407 17.5231 16.4114 18.4293 15.242 19.0547C14.0726 19.68 12.7661 20.0049 11.44 20C11.1748 20 10.9204 20.1054 10.7329 20.2929C10.5454 20.4804 10.44 20.7348 10.44 21C10.44 21.2652 10.5454 21.5196 10.7329 21.7071C10.9204 21.8946 11.1748 22 11.44 22C14.0922 22 16.6357 20.9464 18.5111 19.0711C20.3864 17.1957 21.44 14.6522 21.44 12C21.44 9.34784 20.3864 6.8043 18.5111 4.92893C16.6357 3.05357 14.0922 2 11.44 2Z" fill="#333333"/>
<path fill-rule="evenodd" clip-rule="evenodd" d="M13 9C13 8.44772 12.5523 8 12 8C11.4477 8 11 8.44772 11 9H10.75C10.0662 9 9.38515 9.23147 8.86177 9.68008C8.33363 10.1328 8 10.7828 8 11.5C8 12.2172 8.33363 12.8672 8.86177 13.3199C9.38515 13.7685 10.0662 14 10.75 14H11V15H9C8.44771 15 8 15.4477 8 16C8 16.5523 8.44771 17 9 17H11C11 17.5523 11.4477 18 12 18C12.5523 18 13 17.5523 13 17H13.25C13.9338 17 14.6148 16.7685 15.1382 16.3199C15.6664 15.8672 16 15.2172 16 14.5C16 13.7828 15.6664 13.1328 15.1382 12.6801C14.6148 12.2315 13.9338 12 13.25 12H13V11H14.5C15.0523 11 15.5 10.5523 15.5 10C15.5 9.44772 15.0523 9 14.5 9H13ZM11 11H10.75C10.5055 11 10.2964 11.0846 10.1634 11.1986C10.0351 11.3085 10 11.4215 10 11.5C10 11.5785 10.0351 11.6915 10.1634 11.8014C10.2964 11.9154 10.5055 12 10.75 12H11V11ZM13 14V15H13.25C13.4944 15 13.7036 14.9154 13.8366 14.8014C13.9649 14.6915 14 14.5785 14 14.5C14 14.4215 13.9649 14.3085 13.8366 14.1986C13.7036 14.0846 13.4944 14 13.25 14H13Z" fill="#333333"/>
</svg>
