<svg width="24" height="24" viewBox="0 0 24 24" fill="none" xmlns="http://www.w3.org/2000/svg">
<path fill-rule="evenodd" clip-rule="evenodd" d="M5.37942 4.84388C5.70539 3.21402 7.04602 2 8.76 2H16.32C18.034 2 19.3746 3.21402 19.7006 4.84388C19.7029 4.85566 19.7051 4.86747 19.707 4.87932L20.4271 9.30266C20.7858 9.42155 21.0958 9.63158 21.3321 9.86789C21.6974 10.2332 22 10.7748 22 11.4V16.2C22 16.7872 21.7999 17.3543 21.3771 17.7771C20.9543 18.1999 20.3872 18.4 19.8 18.4H19.6V18.6C19.6 19.9361 18.4862 20.8 17.4 20.8C16.7748 20.8 16.2332 20.4975 15.8679 20.1321C15.5025 19.7668 15.2 19.2252 15.2 18.6V18.4H10V18.6C10 19.9361 8.88618 20.8 7.8 20.8C7.17477 20.8 6.63324 20.4975 6.26789 20.1321C5.90254 19.7668 5.6 19.2252 5.6 18.6V18.4H5.4C4.81275 18.4 4.24567 18.1999 3.82289 17.7771C3.40011 17.3543 3.2 16.7872 3.2 16.2V11.4C3.2 10.534 3.74908 9.6505 4.64881 9.32784L5.37299 4.87932C5.37492 4.86747 5.37706 4.85566 5.37942 4.84388ZM7.34381 5.2203L6.507 10.3607C6.42823 10.8446 6.01026 11.2 5.52 11.2H5.4C5.36139 11.2 5.33589 11.2075 5.31814 11.2155C5.29907 11.224 5.27959 11.2375 5.26105 11.2573C5.21892 11.3025 5.2 11.3605 5.2 11.4V16.2C5.2 16.2687 5.21134 16.3108 5.21959 16.3323C5.2275 16.3528 5.2347 16.3605 5.2371 16.3629C5.23951 16.3653 5.24716 16.3725 5.26773 16.3804C5.2892 16.3887 5.33128 16.4 5.4 16.4H6.6C7.15228 16.4 7.6 16.8477 7.6 17.4V18.5932C7.60092 18.5969 7.60339 18.6051 7.6093 18.6177C7.62238 18.6458 7.64639 18.6822 7.6821 18.7179C7.71782 18.7536 7.75424 18.7776 7.78226 18.7907C7.7943 18.7963 7.80232 18.7988 7.80622 18.7999C7.84544 18.798 7.89985 18.7789 7.94268 18.7389C7.96254 18.7204 7.97596 18.7009 7.98451 18.6819C7.99248 18.6641 8 18.6386 8 18.6V17.4C8 16.8477 8.44771 16.4 9 16.4H16.2C16.7523 16.4 17.2 16.8477 17.2 17.4V18.5932C17.2009 18.5969 17.2034 18.6051 17.2093 18.6177C17.2224 18.6458 17.2464 18.6822 17.2821 18.7179C17.3178 18.7536 17.3542 18.7776 17.3823 18.7907C17.3943 18.7963 17.4023 18.7988 17.4062 18.7999C17.4454 18.798 17.4998 18.7789 17.5427 18.7389C17.5625 18.7204 17.576 18.7009 17.5845 18.6819C17.5925 18.6641 17.6 18.6386 17.6 18.6V17.4C17.6 16.8477 18.0477 16.4 18.6 16.4H19.8C19.8687 16.4 19.9108 16.3887 19.9323 16.3804C19.9528 16.3725 19.9605 16.3653 19.9629 16.3629C19.9653 16.3605 19.9725 16.3528 19.9804 16.3323C19.9887 16.3108 20 16.2687 20 16.2V11.4068C19.9991 11.4031 19.9966 11.3949 19.9907 11.3823C19.9776 11.3542 19.9536 11.3178 19.9179 11.2821C19.8822 11.2464 19.8458 11.2224 19.8177 11.2093C19.8051 11.2034 19.7969 11.2009 19.7932 11.2H19.56C19.0697 11.2 18.6518 10.8446 18.573 10.3607L17.7362 5.22029C17.5774 4.4596 17.0013 4 16.32 4H8.76C8.07868 4 7.50256 4.4596 7.34381 5.2203Z" fill="#333333"/>
<path fill-rule="evenodd" clip-rule="evenodd" d="M7.77498 5.22764C7.85871 4.74914 8.27423 4.40002 8.76001 4.40002H16.32C16.8058 4.40002 17.2213 4.74914 17.305 5.22764L18.145 10.0276C18.196 10.3186 18.1156 10.6172 17.9256 10.8433C17.7356 11.0694 17.4554 11.2 17.16 11.2H7.92001C7.62464 11.2 7.34438 11.0694 7.15438 10.8433C6.96437 10.6172 6.88406 10.3186 6.93498 10.0276L7.77498 5.22764ZM9.6002 6.40002L9.1102 9.20002H15.9698L15.4798 6.40002H9.6002ZM7.6196 13.6678C7.61134 13.6892 7.60001 13.7313 7.60001 13.8C7.60001 13.8687 7.61134 13.9108 7.6196 13.9323C7.62751 13.9529 7.6347 13.9605 7.63711 13.9629C7.63952 13.9653 7.64717 13.9725 7.66774 13.9804C7.6892 13.9887 7.73129 14 7.80001 14C7.83953 14 7.89754 13.9811 7.94269 13.939C7.96255 13.9204 7.97596 13.901 7.98452 13.8819C7.99249 13.8641 8.00001 13.8386 8.00001 13.8C8.00001 13.7313 7.98867 13.6892 7.98041 13.6678C7.9725 13.6472 7.96531 13.6395 7.9629 13.6371C7.96049 13.6347 7.95285 13.6275 7.93228 13.6196C7.91081 13.6114 7.86872 13.6 7.80001 13.6C7.73129 13.6 7.6892 13.6114 7.66774 13.6196C7.64717 13.6275 7.63952 13.6347 7.63711 13.6371C7.6347 13.6395 7.62751 13.6472 7.6196 13.6678ZM6.2229 12.2229C6.64568 11.8001 7.21276 11.6 7.80001 11.6C8.38725 11.6 8.95433 11.8001 9.37711 12.2229C9.79989 12.6457 10 13.2128 10 13.8C10 15.1362 8.88619 16 7.80001 16C7.21276 16 6.64568 15.7999 6.2229 15.3771C5.80012 14.9544 5.60001 14.3873 5.60001 13.8C5.60001 13.2128 5.80012 12.6457 6.2229 12.2229ZM17.2196 13.6678C17.2113 13.6892 17.2 13.7313 17.2 13.8C17.2 13.8687 17.2113 13.9108 17.2196 13.9323C17.2275 13.9529 17.2347 13.9605 17.2371 13.9629C17.2395 13.9653 17.2472 13.9725 17.2677 13.9804C17.2892 13.9887 17.3313 14 17.4 14C17.4395 14 17.4975 13.9811 17.5427 13.939C17.5625 13.9204 17.576 13.901 17.5845 13.8819C17.5925 13.8641 17.6 13.8386 17.6 13.8C17.6 13.7313 17.5887 13.6892 17.5804 13.6678C17.5725 13.6472 17.5653 13.6395 17.5629 13.6371C17.5605 13.6347 17.5528 13.6275 17.5323 13.6196C17.5108 13.6114 17.4687 13.6 17.4 13.6C17.3313 13.6 17.2892 13.6114 17.2677 13.6196C17.2472 13.6275 17.2395 13.6347 17.2371 13.6371C17.2347 13.6395 17.2275 13.6472 17.2196 13.6678ZM15.8229 12.2229C16.2457 11.8001 16.8128 11.6 17.4 11.6C17.9873 11.6 18.5543 11.8001 18.9771 12.2229C19.3999 12.6457 19.6 13.2128 19.6 13.8C19.6 15.1362 18.4862 16 17.4 16C16.8128 16 16.2457 15.7999 15.8229 15.3771C15.4001 14.9544 15.2 14.3873 15.2 13.8C15.2 13.2128 15.4001 12.6457 15.8229 12.2229Z" fill="#333333"/>
</svg>
