<svg width="40" height="40" viewBox="0 0 40 40" fill="none" xmlns="http://www.w3.org/2000/svg">
<path fill-rule="evenodd" clip-rule="evenodd" d="M26.1048 6.28915C23.1502 4.97265 19.8492 4.64651 16.6941 5.35937C13.539 6.07222 10.6989 7.78588 8.59726 10.2448C6.49565 12.7036 5.24518 15.776 5.03235 19.0036C4.81953 22.2312 5.65574 25.4412 7.41628 28.1547C9.17682 30.8683 11.7674 32.94 14.8015 34.061C17.8357 35.182 21.151 35.2921 24.2529 34.375C27.3548 33.4579 30.0771 31.5626 32.0138 28.9719C33.9506 26.3812 34.998 23.2338 34.9998 19.9991V18.4668C34.9998 17.5463 35.746 16.8001 36.6665 16.8001C37.587 16.8001 38.3332 17.5463 38.3332 18.4668V20.0001C38.3309 23.9535 37.0508 27.8013 34.6836 30.9677C32.3165 34.1342 28.9892 36.4506 25.198 37.5715C21.4068 38.6925 17.3548 38.5579 13.6464 37.1878C9.93792 35.8177 6.7717 33.2856 4.61993 29.969C2.46816 26.6525 1.44612 22.7292 1.70624 18.7843C1.96637 14.8394 3.49472 11.0843 6.06335 8.07902C8.63198 5.07372 12.1033 2.97925 15.9595 2.10799C19.8158 1.23672 23.8503 1.63534 27.4615 3.24439C28.3023 3.61902 28.6802 4.60431 28.3056 5.4451C27.9309 6.28589 26.9456 6.66378 26.1048 6.28915Z" fill="#73D700"/>
<path fill-rule="evenodd" clip-rule="evenodd" d="M37.8448 5.48757C38.496 6.13811 38.4965 7.19339 37.8459 7.84459L21.1793 24.5279C20.8668 24.8407 20.4428 25.0166 20.0006 25.0167C19.5584 25.0168 19.1343 24.8412 18.8217 24.5285L13.8217 19.5285C13.1708 18.8776 13.1708 17.8224 13.8217 17.1715C14.4725 16.5206 15.5278 16.5206 16.1787 17.1715L19.9996 20.9924L35.4877 5.48874C36.1383 4.83755 37.1936 4.83702 37.8448 5.48757Z" fill="#73D700"/>
</svg>
