<svg width="40" height="40" viewBox="0 0 40 40" fill="none" xmlns="http://www.w3.org/2000/svg">
<path fill-rule="evenodd" clip-rule="evenodd" d="M20.0003 5.00008C11.7161 5.00008 5.00033 11.7158 5.00033 20.0001C5.00033 28.2844 11.7161 35.0001 20.0003 35.0001C28.2846 35.0001 35.0003 28.2844 35.0003 20.0001C35.0003 11.7158 28.2846 5.00008 20.0003 5.00008ZM1.66699 20.0001C1.66699 9.87486 9.8751 1.66675 20.0003 1.66675C30.1255 1.66675 38.3337 9.87486 38.3337 20.0001C38.3337 30.1253 30.1255 38.3334 20.0003 38.3334C9.8751 38.3334 1.66699 30.1253 1.66699 20.0001Z" fill="#73D700"/>
<path fill-rule="evenodd" clip-rule="evenodd" d="M19.9997 8.33325C20.9201 8.33325 21.6663 9.07944 21.6663 9.99992V18.9699L27.4117 21.8425C28.235 22.2542 28.5687 23.2553 28.1571 24.0786C27.7454 24.9019 26.7443 25.2356 25.921 24.824L19.2543 21.4906C18.6897 21.2083 18.333 20.6312 18.333 19.9999V9.99992C18.333 9.07944 19.0792 8.33325 19.9997 8.33325Z" fill="#73D700"/>
</svg>
