<svg width="40" height="40" viewBox="0 0 40 40" fill="none" xmlns="http://www.w3.org/2000/svg">
<path fill-rule="evenodd" clip-rule="evenodd" d="M19.9997 0C20.9201 0 21.6663 0.746192 21.6663 1.66667V38.3333C21.6663 39.2538 20.9201 40 19.9997 40C19.0792 40 18.333 39.2538 18.333 38.3333V1.66667C18.333 0.746192 19.0792 0 19.9997 0Z" fill="#73D700"/>
<path fill-rule="evenodd" clip-rule="evenodd" d="M10.5297 8.86345C11.9362 7.45692 13.8439 6.66675 15.833 6.66675H28.333C29.2535 6.66675 29.9997 7.41294 29.9997 8.33341C29.9997 9.25389 29.2535 10.0001 28.333 10.0001H15.833C14.7279 10.0001 13.6681 10.4391 12.8867 11.2205C12.1053 12.0019 11.6663 13.0617 11.6663 14.1667C11.6663 15.2718 12.1053 16.3316 12.8867 17.113C13.6681 17.8944 14.7279 18.3334 15.833 18.3334H24.1663C26.1555 18.3334 28.0631 19.1236 29.4696 20.5301C30.8762 21.9366 31.6663 23.8443 31.6663 25.8334C31.6663 27.8225 30.8762 29.7302 29.4696 31.1367C28.0631 32.5432 26.1555 33.3334 24.1663 33.3334H9.99967C9.0792 33.3334 8.33301 32.5872 8.33301 31.6667C8.33301 30.7463 9.0792 30.0001 9.99967 30.0001H24.1663C25.2714 30.0001 26.3312 29.5611 27.1126 28.7797C27.894 27.9983 28.333 26.9385 28.333 25.8334C28.333 24.7283 27.894 23.6685 27.1126 22.8871C26.3312 22.1057 25.2714 21.6667 24.1663 21.6667H15.833C13.8439 21.6667 11.9362 20.8766 10.5297 19.47C9.12318 18.0635 8.33301 16.1559 8.33301 14.1667C8.33301 12.1776 9.12318 10.27 10.5297 8.86345Z" fill="#73D700"/>
</svg>
