<svg width="24" height="24" viewBox="0 0 24 24" fill="none" xmlns="http://www.w3.org/2000/svg">
<path d="M3.15792 22.5182C2.68266 22.5182 2.22014 22.4418 1.78429 22.2904L0.400881 21.8122L1.4637 20.8057C2.14814 20.1574 2.51525 19.3665 2.55762 18.4498C0.937771 16.6131 0.0497704 14.336 0.0497704 12C0.0497704 6.20002 5.41066 1.48151 12.0003 1.48151C18.5899 1.48151 23.9511 6.20002 23.9511 12C23.9511 17.7994 18.5899 22.518 12.0003 22.518C10.1019 22.518 8.22844 22.1185 6.54696 21.3594C5.84533 21.8323 4.58103 22.5182 3.15792 22.5182ZM6.34251 19.2774L6.85303 19.536C8.41036 20.3236 10.1902 20.7402 12.0003 20.7402C17.6098 20.7402 22.1733 16.8196 22.1733 12C22.1733 7.18047 17.6098 3.25928 12.0003 3.25928C6.3911 3.25928 1.82755 7.18047 1.82755 12C1.82755 14.024 2.61155 15.9248 4.09481 17.4972L4.32562 17.742L4.33658 18.0782C4.35999 18.7982 4.25481 19.7345 3.76592 20.6771C4.81214 20.4655 5.70221 19.79 5.89599 19.6347L6.34251 19.2774Z" fill="#333333"/>
<path d="M8.59471 14.5176H4.71412V9.33362H8.59471V10.2815H5.68449V11.4738H8.4913V12.3846H5.68449V13.5547H8.59471V14.5176ZM12.9132 9.32651H13.891V14.5179H13.2836V14.525L10.5583 11.0225V14.5179H9.58079V9.33362H10.3734L12.9132 12.5478V9.32651ZM18.6392 10.6C18.2907 10.2667 17.7722 10.0815 17.3209 10.0815C16.2101 10.0815 15.5363 10.9259 15.5363 11.9923C15.5363 12.8441 16.0329 13.725 17.3209 13.725C17.7283 13.725 18.0836 13.6361 18.491 13.3105V12.3923H17.1651V11.5185H19.3867V13.7031C18.8756 14.2886 18.2317 14.6361 17.3203 14.6361C15.3728 14.6361 14.5802 13.355 14.5802 11.9923C14.5802 10.5333 15.4913 9.18518 17.3203 9.18518C18.0169 9.18518 18.7123 9.45185 19.246 9.97777L18.6392 10.6Z" fill="#333333"/>
</svg>
