<svg width="32" height="32" viewBox="0 0 32 32" fill="none" xmlns="http://www.w3.org/2000/svg">
<path d="M15.9994 3.33337C12.64 3.33337 9.41821 4.66789 7.04274 7.04335C4.66728 9.41882 3.33276 12.6406 3.33276 16C3.33276 19.3594 4.66728 22.5813 7.04274 24.9567C9.41821 27.3322 12.64 28.6667 15.9994 28.6667C19.3588 28.6667 22.5807 27.3322 24.9561 24.9567C27.3316 22.5813 28.6661 19.3594 28.6661 16C28.6661 12.6406 27.3316 9.41882 24.9561 7.04335C22.5807 4.66789 19.3588 3.33337 15.9994 3.33337Z" fill="#039BE5"/>
<path d="M17.7153 19.3573H20.9933L21.5079 16.0273H17.7146V14.2073C17.7146 12.824 18.1666 11.5973 19.4606 11.5973H21.5399V8.69133C21.1746 8.642 20.4019 8.534 18.9419 8.534C15.8933 8.534 14.1059 10.144 14.1059 13.812V16.0273H10.9719V19.3573H14.1059V28.51C14.7266 28.6033 15.3553 28.6667 16.0006 28.6667C16.5839 28.6667 17.1533 28.6133 17.7153 28.5373V19.3573Z" fill="white"/>
</svg>
