<svg width="40" height="40" viewBox="0 0 40 40" fill="none" xmlns="http://www.w3.org/2000/svg">
<path fill-rule="evenodd" clip-rule="evenodd" d="M24.9999 3.33325H14.9999V6.66659H16.6666V8.33325H14.9999C8.5566 8.33325 3.33325 13.5566 3.33325 19.9999V31.6666C3.33325 34.428 5.57183 36.6666 8.33325 36.6666H31.6666C34.428 36.6666 36.6666 34.428 36.6666 31.6666V19.9999C36.6666 13.5566 31.4432 8.33325 24.9999 8.33325H23.3333V6.66659H24.9999V3.33325ZM14.9999 11.6666C10.3975 11.6666 6.66659 15.3975 6.66659 19.9999V31.6666C6.66659 32.5871 7.41278 33.3333 8.33325 33.3333H31.6666C32.5871 33.3333 33.3333 32.5871 33.3333 31.6666V19.9999C33.3333 15.3975 29.6023 11.6666 24.9999 11.6666H14.9999Z" fill="#73D700"/>
</svg>
