<svg width="40" height="40" viewBox="0 0 40 40" fill="none" xmlns="http://www.w3.org/2000/svg">
<path d="M32.5002 15.6249C32.5002 12.3097 31.1832 9.13029 28.839 6.78608C26.4948 4.44188 23.3154 3.12492 20.0002 3.12492C16.7257 3.12433 13.5817 4.40864 11.2442 6.70172C8.90675 8.9948 7.56238 12.1135 7.50016 15.3874C6.5056 15.3874 5.55177 15.7825 4.84851 16.4858C4.14525 17.189 3.75016 18.1429 3.75016 19.1374V24.1374C3.75016 25.132 4.14525 26.0858 4.84851 26.7891C5.55177 27.4923 6.5056 27.8874 7.50016 27.8874H10.0002C10.9947 27.8874 11.9486 27.4923 12.6518 26.7891C13.3551 26.0858 13.7502 25.132 13.7502 24.1374V19.1374C13.7502 18.1429 13.3551 17.189 12.6518 16.4858C11.9486 15.7825 10.9947 15.3874 10.0002 15.3874C10.0622 12.7766 11.1431 10.2937 13.0118 8.46939C14.8804 6.64509 17.3886 5.62418 20.0002 5.62492C22.6523 5.62492 25.1959 6.67849 27.0712 8.55385C28.9466 10.4292 30.0002 12.9728 30.0002 15.6249C29.0056 15.6249 28.0518 16.02 27.3485 16.7233C26.6453 17.4265 26.2502 18.3804 26.2502 19.3749V24.3749C26.2535 25.2015 26.5298 26.0037 27.0362 26.657C27.5426 27.3103 28.2506 27.778 29.0502 27.9874C28.1052 29.7041 26.5259 30.9828 24.6502 31.5499C24.3498 30.9009 23.8702 30.3513 23.2677 29.966C22.6653 29.5806 21.9653 29.3755 21.2502 29.3749H18.7502C17.7556 29.3749 16.8018 29.77 16.0985 30.4733C15.3953 31.1765 15.0002 32.1304 15.0002 33.1249C15.0002 34.1195 15.3953 35.0733 16.0985 35.7766C16.8018 36.4798 17.7556 36.8749 18.7502 36.8749H21.2502C22.0784 36.8708 22.8819 36.5927 23.5354 36.0839C24.1889 35.5751 24.6556 34.8643 24.8627 34.0624C26.3983 33.6875 27.8231 32.9539 29.0204 31.9218C30.2176 30.8897 31.1531 29.5885 31.7502 28.1249H32.5002C33.4947 28.1249 34.4486 27.7298 35.1518 27.0266C35.8551 26.3233 36.2502 25.3695 36.2502 24.3749V19.3749C36.2502 18.3804 35.8551 17.4265 35.1518 16.7233C34.4486 16.02 33.4947 15.6249 32.5002 15.6249ZM11.2502 19.1374V24.1374C11.2502 24.4689 11.1185 24.7869 10.884 25.0213C10.6496 25.2557 10.3317 25.3874 10.0002 25.3874H7.50016C7.16864 25.3874 6.8507 25.2557 6.61628 25.0213C6.38186 24.7869 6.25016 24.4689 6.25016 24.1374V19.1374C6.25016 18.8059 6.38186 18.488 6.61628 18.2535C6.8507 18.0191 7.16864 17.8874 7.50016 17.8874H10.0002C10.3317 17.8874 10.6496 18.0191 10.884 18.2535C11.1185 18.488 11.2502 18.8059 11.2502 19.1374ZM21.2502 34.3749H18.7502C18.4186 34.3749 18.1007 34.2432 17.8663 34.0088C17.6319 33.7744 17.5002 33.4564 17.5002 33.1249C17.5002 32.7934 17.6319 32.4755 17.8663 32.241C18.1007 32.0066 18.4186 31.8749 18.7502 31.8749H21.2502C21.5817 31.8749 21.8996 32.0066 22.134 32.241C22.3685 32.4755 22.5002 32.7934 22.5002 33.1249C22.5002 33.4564 22.3685 33.7744 22.134 34.0088C21.8996 34.2432 21.5817 34.3749 21.2502 34.3749ZM33.7502 24.3749C33.7502 24.7064 33.6185 25.0244 33.384 25.2588C33.1496 25.4932 32.8317 25.6249 32.5002 25.6249H30.0002C29.6686 25.6249 29.3507 25.4932 29.1163 25.2588C28.8819 25.0244 28.7502 24.7064 28.7502 24.3749V19.3749C28.7502 19.0434 28.8819 18.7255 29.1163 18.491C29.3507 18.2566 29.6686 18.1249 30.0002 18.1249H32.5002C32.8317 18.1249 33.1496 18.2566 33.384 18.491C33.6185 18.7255 33.7502 19.0434 33.7502 19.3749V24.3749Z" fill="#73D700"/>
<path fill-rule="evenodd" clip-rule="evenodd" d="M10.9525 6.40428C13.3679 4.03476 16.6166 2.70764 20.0002 2.70825C23.4259 2.70825 26.7113 4.06911 29.1336 6.49146C31.4624 8.82021 32.8101 11.9466 32.9108 15.2285C33.8651 15.323 34.7624 15.7446 35.4464 16.4286C36.2278 17.21 36.6668 18.2699 36.6668 19.3749V24.3749C36.6668 25.48 36.2278 26.5398 35.4464 27.3212C34.665 28.1026 33.6052 28.5416 32.5002 28.5416H32.0261C31.4019 29.9606 30.4684 31.2237 29.2924 32.2374C28.1065 33.2597 26.7063 34.0009 25.1963 34.407C24.9401 35.1993 24.4515 35.8988 23.7914 36.4127C23.0653 36.978 22.1724 37.2871 21.2522 37.2916L21.2502 37.2916H18.7502C17.6451 37.2916 16.5853 36.8526 15.8039 36.0712C15.0225 35.2898 14.5835 34.23 14.5835 33.1249C14.5835 32.0199 15.0225 30.96 15.8039 30.1786C16.5853 29.3972 17.6451 28.9583 18.7502 28.9583H21.2502C22.0447 28.9589 22.8229 29.1868 23.4923 29.615C24.0565 29.9759 24.5237 30.4665 24.8565 31.0435C26.3264 30.52 27.5813 29.5259 28.4272 28.2181C27.7519 27.9428 27.1575 27.4937 26.7069 26.9123C26.1443 26.1864 25.8372 25.295 25.8335 24.3766L25.8335 24.3749V19.3749C25.8335 18.2699 26.2725 17.21 27.0539 16.4286C27.7345 15.748 28.6264 15.3272 29.5754 15.23C29.4765 12.8319 28.4805 10.5524 26.7766 8.84848C24.9794 7.05126 22.5418 6.04159 20.0002 6.04159C17.4975 6.04088 15.0936 7.01925 13.3028 8.76754C11.6086 10.4215 10.5901 12.6404 10.4348 14.9935C11.3801 15.0926 12.2682 15.5129 12.9464 16.1911C13.7278 16.9725 14.1668 18.0324 14.1668 19.1374V24.1374C14.1668 25.2425 13.7278 26.3023 12.9464 27.0837C12.165 27.8651 11.1052 28.3041 10.0002 28.3041H7.50016C6.39509 28.3041 5.33529 27.8651 4.55388 27.0837C3.77248 26.3023 3.3335 25.2425 3.3335 24.1374V19.1374C3.3335 18.0324 3.77248 16.9725 4.55388 16.1911C5.23964 15.5054 6.13982 15.0834 7.09683 14.9903C7.25612 11.7501 8.62985 8.68276 10.9525 6.40428ZM20.0001 3.54159C16.8348 3.54101 13.7956 4.78251 11.536 6.99916C9.27646 9.21581 7.9769 12.2306 7.91675 15.3953L7.90899 15.8041H7.50016C6.61611 15.8041 5.76826 16.1553 5.14314 16.7804C4.51802 17.4055 4.16683 18.2534 4.16683 19.1374V24.1374C4.16683 25.0215 4.51802 25.8693 5.14314 26.4944C5.76826 27.1196 6.61611 27.4708 7.50016 27.4708H10.0002C10.8842 27.4708 11.7321 27.1196 12.3572 26.4944C12.9823 25.8693 13.3335 25.0215 13.3335 24.1374V19.1374C13.3335 18.2534 12.9823 17.4055 12.3572 16.7804C11.7321 16.1553 10.8842 15.8041 10.0002 15.8041H9.57348L9.58361 15.3775C9.64822 12.658 10.7741 10.0716 12.7207 8.17124C14.6672 6.27095 17.2799 5.20752 20.0002 5.20825M20.0001 3.54159C23.2048 3.54159 26.2783 4.81465 28.5444 7.08071L20.0001 3.54159ZM20.0002 5.20825C22.7628 5.20828 25.4124 6.30575 27.3659 8.25922C29.3194 10.2127 30.4168 12.8622 30.4168 15.6249V16.0416H30.0002C29.1161 16.0416 28.2683 16.3928 27.6431 17.0179C27.018 17.643 26.6668 18.4909 26.6668 19.3749V24.374C26.67 25.1084 26.9156 25.8213 27.3655 26.4018C27.8156 26.9825 28.445 27.3982 29.1557 27.5843L29.6731 27.7198L29.4152 28.1883C28.4177 30.0004 26.7507 31.3502 24.7707 31.9488L24.4241 32.0535L24.272 31.7249C24.005 31.148 23.5787 30.6595 23.0432 30.317C22.5077 29.9744 21.8855 29.7921 21.2498 29.7916H18.7502C17.8661 29.7916 17.0183 30.1428 16.3931 30.7679C15.768 31.393 15.4168 32.2409 15.4168 33.1249C15.4168 34.009 15.768 34.8568 16.3931 35.4819C17.0183 36.1071 17.8661 36.4583 18.7502 36.4583H21.2494C21.9851 36.4544 22.6989 36.2072 23.2795 35.7552C23.8604 35.3029 24.2752 34.6711 24.4592 33.9583L24.5216 33.7168L24.7638 33.6576C26.2355 33.2984 27.6009 32.5954 28.7483 31.6063C29.8956 30.6172 30.7922 29.3702 31.3644 27.9675L31.4701 27.7083H32.5002C33.3842 27.7083 34.2321 27.3571 34.8572 26.7319C35.4823 26.1068 35.8335 25.259 35.8335 24.3749V19.3749C35.8335 18.4909 35.4823 17.643 34.8572 17.0179C34.2321 16.3928 33.3842 16.0416 32.5002 16.0416H32.0835V15.6249C32.0835 12.4202 30.8104 9.34678 28.5444 7.08071M7.50016 18.3041C7.27915 18.3041 7.06719 18.3919 6.91091 18.5482C6.75463 18.7044 6.66683 18.9164 6.66683 19.1374V24.1374C6.66683 24.3584 6.75463 24.5704 6.91091 24.7267C7.06719 24.883 7.27915 24.9708 7.50016 24.9708H10.0002C10.2212 24.9708 10.4331 24.883 10.5894 24.7267C10.7457 24.5704 10.8335 24.3584 10.8335 24.1374V19.1374C10.8335 18.9164 10.7457 18.7044 10.5894 18.5482C10.4331 18.3919 10.2212 18.3041 10.0002 18.3041H7.50016ZM6.32165 17.9589C6.63421 17.6463 7.05814 17.4708 7.50016 17.4708H10.0002C10.4422 17.4708 10.8661 17.6463 11.1787 17.9589C11.4912 18.2715 11.6668 18.6954 11.6668 19.1374V24.1374C11.6668 24.5794 11.4912 25.0034 11.1787 25.3159C10.8661 25.6285 10.4422 25.8041 10.0002 25.8041H7.50016C7.05814 25.8041 6.63421 25.6285 6.32165 25.3159C6.00909 25.0034 5.8335 24.5794 5.8335 24.1374V19.1374C5.8335 18.6954 6.00909 18.2715 6.32165 17.9589ZM30.0002 18.5416C29.7792 18.5416 29.5672 18.6294 29.4109 18.7857C29.2546 18.9419 29.1668 19.1539 29.1668 19.3749V24.3749C29.1668 24.5959 29.2546 24.8079 29.4109 24.9642C29.5672 25.1205 29.7791 25.2083 30.0002 25.2083H32.5002C32.7212 25.2083 32.9331 25.1205 33.0894 24.9642C33.2457 24.8079 33.3335 24.5959 33.3335 24.3749V19.3749C33.3335 19.1539 33.2457 18.9419 33.0894 18.7857C32.9331 18.6294 32.7212 18.5416 32.5002 18.5416H30.0002ZM28.8217 18.1964C29.1342 17.8838 29.5581 17.7083 30.0002 17.7083H32.5002C32.9422 17.7083 33.3661 17.8838 33.6787 18.1964C33.9912 18.509 34.1668 18.9329 34.1668 19.3749V24.3749C34.1668 24.8169 33.9912 25.2409 33.6787 25.5534C33.3661 25.866 32.9422 26.0416 32.5002 26.0416H30.0002C29.5581 26.0416 29.1342 25.866 28.8217 25.5534C28.5091 25.2409 28.3335 24.8169 28.3335 24.3749V19.3749C28.3335 18.9329 28.5091 18.509 28.8217 18.1964ZM18.7502 32.2916C18.5291 32.2916 18.3172 32.3794 18.1609 32.5357C18.0046 32.6919 17.9168 32.9039 17.9168 33.1249C17.9168 33.3459 18.0046 33.5579 18.1609 33.7142C18.3172 33.8705 18.5291 33.9583 18.7502 33.9583H21.2502C21.4712 33.9583 21.6831 33.8705 21.8394 33.7142C21.9957 33.5579 22.0835 33.3459 22.0835 33.1249C22.0835 32.9039 21.9957 32.6919 21.8394 32.5357C21.6831 32.3794 21.4712 32.2916 21.2502 32.2916H18.7502ZM17.5717 31.9464C17.8842 31.6338 18.3081 31.4583 18.7502 31.4583H21.2502C21.6922 31.4583 22.1161 31.6338 22.4287 31.9464C22.7412 32.259 22.9168 32.6829 22.9168 33.1249C22.9168 33.5669 22.7412 33.9909 22.4287 34.3034C22.1161 34.616 21.6922 34.7916 21.2502 34.7916H18.7502C18.3081 34.7916 17.8842 34.616 17.5717 34.3034C17.2591 33.9909 17.0835 33.5669 17.0835 33.1249C17.0835 32.6829 17.2591 32.259 17.5717 31.9464Z" fill="#73D700"/>
</svg>
