<svg width="24" height="24" viewBox="0 0 24 24" fill="none" xmlns="http://www.w3.org/2000/svg">
<path fill-rule="evenodd" clip-rule="evenodd" d="M2 6C2 4.89543 2.89543 4 4 4H14.5977C15.114 4 15.6103 4.19967 15.9828 4.55723L21.3851 9.74344C21.7779 10.1206 22 10.6416 22 11.1862V16C22 17.1046 21.1046 18 20 18H4C2.89543 18 2 17.1046 2 16V6ZM14.5977 6H4V16H20V11.1862L14.5977 6Z" fill="#333333"/>
<path d="M11 17C11 18.6569 9.65685 20 8 20C6.34315 20 5 18.6569 5 17C5 15.3431 6.34315 14 8 14C9.65685 14 11 15.3431 11 17Z" fill="white"/>
<path fill-rule="evenodd" clip-rule="evenodd" d="M8 18C8.55228 18 9 17.5523 9 17C9 16.4477 8.55228 16 8 16C7.44772 16 7 16.4477 7 17C7 17.5523 7.44772 18 8 18ZM8 20C9.65685 20 11 18.6569 11 17C11 15.3431 9.65685 14 8 14C6.34315 14 5 15.3431 5 17C5 18.6569 6.34315 20 8 20Z" fill="#333333"/>
<path d="M19 17C19 18.6569 17.6569 20 16 20C14.3431 20 13 18.6569 13 17C13 15.3431 14.3431 14 16 14C17.6569 14 19 15.3431 19 17Z" fill="white"/>
<path fill-rule="evenodd" clip-rule="evenodd" d="M16 18C16.5523 18 17 17.5523 17 17C17 16.4477 16.5523 16 16 16C15.4477 16 15 16.4477 15 17C15 17.5523 15.4477 18 16 18ZM16 20C17.6569 20 19 18.6569 19 17C19 15.3431 17.6569 14 16 14C14.3431 14 13 15.3431 13 17C13 18.6569 14.3431 20 16 20Z" fill="#333333"/>
<path d="M11 9C11 8.44772 11.4477 8 12 8H14C14.5523 8 15 8.44772 15 9V11C15 11.5523 14.5523 12 14 12H12C11.4477 12 11 11.5523 11 11V9Z" fill="#333333"/>
</svg>
