<svg id="Layer_1" data-name="Layer 1" xmlns="http://www.w3.org/2000/svg" viewBox="0 0 66.25 48.95"><defs><style>.cls-1{fill:#4cc0e0;}.cls-2{fill:#fff;}.cls-3,.cls-4,.cls-5{fill:#11677c;}.cls-4{font-size:12px;}.cls-4,.cls-5{font-family:MVBoli, MV Boli;}.cls-5{font-size:6.69px;}</style></defs><path class="cls-1" d="M25.62,42.83c.51.13.39-4.06,2.54-8.16s2.64-4,2.64-4,9.83.44,10.37,1.18c.27.36-.42,1.39-1.08,2.82A43.46,43.46,0,0,0,38.19,40C37,43.76,38.09,47,36.87,48s-11.28-3.15-12-2.64a1.27,1.27,0,0,0,.17,2.1A14.7,14.7,0,0,1,27.8,49c.47.27.42,1.42,0,1.51s-3.13-1.69-3.53-1.34.47,2.86,1.15,3.1S33.34,55.8,36,56s2.25.24,3.84,0,3.21-.47,3.5-.79-.29-2.64.52-4.47a5.93,5.93,0,0,1,1.59-2.4,5.81,5.81,0,0,1,4.13-1.66c2.29.19,2.76.95,3.2,1.56a4,4,0,0,1,.86,2.11,6.63,6.63,0,0,1,.19,1.05l9.71-3.72s-.44-4.65,3-6.09c4.28-1.44,4.65,2.76,4.72,3.18s1.25-.49,1.37-1.43,0-5.68,0-6.57-4.08,1.37-4.4.81-.17-6.07,0-6.24,4,.22,4.38-.41,0-3.23,0-3.23-.1-.64-1.37-1.35a18.3,18.3,0,0,0-6.89-1.59c-1.81.13-28.91,1.4-30.28,1.86a13,13,0,0,0-6.8,7C24.34,41,25.1,42.71,25.62,42.83Z" transform="translate(-16.32 -24.77)"/><path class="cls-2" d="M33.44,50.44a9.45,9.45,0,0,0,3.16.29,16.65,16.65,0,0,0,2.15-1.17c.83-.37.83.49.34,1.17s-1,1.67-2,1.72a23.05,23.05,0,0,1-3.11,0,5.86,5.86,0,0,1-2-.54C31.58,51.71,32.78,50.29,33.44,50.44Z" transform="translate(-16.32 -24.77)"/><path class="cls-2" d="M51.71,30.34l-9.22,7.82,9.22,6.46.14-2.72,2.07-.51L56,40.8l.08-8.34s-1.85.33-2.46.49-2,.67-2,.67Z" transform="translate(-16.32 -24.77)"/><path class="cls-2" d="M57.14,32.37s2.61-.44,5.13-.64,4.77-.36,4.81-.35-.13,2.35,0,3.29C67.12,35.8,67,38,67,38s-3.42,1.19-4.59,1.49-5.31,1-5.31,1Z" transform="translate(-16.32 -24.77)"/><path class="cls-3" d="M45,55.4a3.75,3.75,0,0,1-1.2.4s4.16,3.59,7.8-1.59c1.91-5.48-1.9-6.17-3.06-6C46.84,48.39,43.64,50.54,45,55.4Z" transform="translate(-16.32 -24.77)"/><path class="cls-2" d="M46.09,51.42c-.76,4.5,3.22,3.45,3.84,3.4s-.63,1.31-3.09.61A2.84,2.84,0,0,1,46.09,51.42Z" transform="translate(-16.32 -24.77)"/><path class="cls-3" d="M64.8,48a2.85,2.85,0,0,1-.88.29s3,2.64,5.72-1.17c1.4-4-1.4-4.52-2.24-4.43C66.14,42.81,63.79,44.39,64.8,48Z" transform="translate(-16.32 -24.77)"/><path class="cls-2" d="M65.59,45C65,48.34,68,47.56,68.4,47.53s-.46,1-2.26.45A2.1,2.1,0,0,1,65.59,45Z" transform="translate(-16.32 -24.77)"/><text class="cls-4" transform="translate(0 43.79)">Happy Triip</text><text class="cls-5" transform="matrix(-0.33, 0.94, 0.94, 0.33, 57.98, 44.94)">)</text></svg>