<svg width="24" height="24" viewBox="0 0 24 24" fill="none" xmlns="http://www.w3.org/2000/svg">
<g clip-path="url(#clip0_2039_23977)">
<path d="M0.669067 10.944L1.34107 8.16001C1.48507 7.63201 1.96507 7.24801 2.54107 7.20002C6.28507 7.10401 10.2691 7.00802 13.7731 7.20002C14.2531 7.24801 14.6851 7.39202 15.0211 7.68002L17.1811 9.50401C17.2291 9.60001 17.2771 9.60002 17.3731 9.60002C18.8131 9.64802 20.2051 9.88802 21.5971 10.32C21.9331 10.416 22.2691 10.704 22.4131 11.04C22.5571 11.328 22.7971 11.568 23.0371 11.808C23.4211 12.144 23.5651 12.624 23.5171 13.104C23.4211 13.776 23.2291 14.256 22.9891 14.64C22.7491 14.976 22.3651 15.216 21.8851 15.216H20.6371C20.3971 16.176 19.5811 16.896 18.5251 16.896C17.5171 16.896 16.6531 16.176 16.4131 15.216H6.90907C6.66907 16.176 5.85307 16.896 4.79707 16.896C3.78907 16.896 2.92507 16.176 2.68507 15.216H1.77307C1.24507 15.216 0.765068 14.832 0.669067 14.304C0.429068 12.912 0.381067 11.904 0.669067 10.944ZM9.35707 8.06401C8.10907 8.06401 6.81306 8.06401 5.56507 8.11201V9.64802C5.56507 9.69602 5.61307 9.74401 5.66107 9.74401C7.96507 10.32 7.82107 10.32 7.91707 10.32H9.74107L9.35707 8.06401ZM14.3491 8.44802C14.1571 8.30402 13.9171 8.20801 13.6771 8.16001C12.5731 8.11202 11.4691 8.06401 10.3171 8.06401L10.6531 10.32H14.5411L16.0291 9.88802L14.3491 8.44802ZM18.5251 15.936C19.1971 15.936 19.7251 15.408 19.7251 14.736C19.7251 14.064 19.1971 13.536 18.5251 13.536C17.8531 13.536 17.3251 14.064 17.3251 14.736C17.3251 15.36 17.8531 15.936 18.5251 15.936ZM4.79707 15.936C5.46907 15.936 5.99707 15.408 5.99707 14.736C5.99707 14.064 5.46907 13.536 4.79707 13.536C4.12506 13.536 3.59707 14.064 3.59707 14.736C3.59707 15.36 4.17307 15.936 4.79707 15.936ZM1.62907 14.112C1.62907 14.208 1.72507 14.256 1.77307 14.256H2.68507C2.92507 13.296 3.74107 12.576 4.79707 12.576C5.80507 12.576 6.66907 13.296 6.90907 14.256H16.4131C16.6531 13.296 17.4691 12.576 18.5251 12.576C19.5331 12.576 20.3971 13.296 20.6371 14.256H21.8851C22.0291 14.256 22.1251 14.208 22.1731 14.112C22.3651 13.824 22.4611 13.44 22.5571 12.96C22.5571 12.816 22.5091 12.672 22.4131 12.576C22.0771 12.288 21.7891 11.904 21.5971 11.52C21.5491 11.424 21.4531 11.328 21.3571 11.28C19.2451 10.608 17.6131 10.656 17.2771 10.608L14.9251 11.28C14.8291 11.328 14.6851 11.328 14.5891 11.328H7.96507C7.86907 11.328 7.77307 11.328 7.62907 11.28L5.46907 10.704C4.98907 10.56 4.65307 10.176 4.65307 9.69602V8.16001C3.98107 8.16001 3.26107 8.20802 2.58907 8.20802C2.44507 8.20802 2.34907 8.30402 2.30107 8.44802L1.58107 11.232C1.38907 12 1.38907 12.864 1.62907 14.112Z" fill="#333333"/>
<path fill-rule="evenodd" clip-rule="evenodd" d="M13.8004 6.70076C10.2728 6.50747 6.26812 6.60429 2.52825 6.70018L2.51387 6.70055L2.49954 6.70174C1.72983 6.76588 1.06201 7.28293 0.858685 8.02846L0.85675 8.03555L0.186138 10.8138C-0.131435 11.8833 -0.0662365 12.982 0.176338 14.389L0.177132 14.3935C0.317863 15.1675 1.01193 15.716 1.77307 15.716H2.32494C2.72911 16.6935 3.68544 17.396 4.79707 17.396C5.95649 17.396 6.87601 16.689 7.27072 15.716H16.0529C16.4571 16.6935 17.4134 17.396 18.5251 17.396C19.6845 17.396 20.604 16.689 20.9987 15.716H21.8851C22.5458 15.716 23.0738 15.3816 23.3959 14.9306L23.4049 14.9181L23.4131 14.905C23.6926 14.4578 23.9069 13.9108 24.012 13.1747L24.0135 13.1643L24.0146 13.1538C24.0752 12.5477 23.8959 11.9035 23.3797 11.4436C23.1374 11.201 22.9661 11.0222 22.8656 10.8269C22.659 10.3598 22.2111 9.97758 21.7404 9.84097C20.3384 9.40631 18.9336 9.1601 17.4819 9.10362L15.3465 7.30039L15.3449 7.29908C14.9078 6.92508 14.3676 6.75698 13.8228 6.7025L13.8116 6.70138L13.8004 6.70076ZM14.1473 7.77615C14.3656 7.83898 14.5481 7.9332 14.6957 8.05964L14.6985 8.06204L16.7991 9.83588C16.8586 9.9181 16.9455 10.0011 17.0734 10.0523C17.2017 10.1036 17.3361 10.1008 17.3676 10.1001C18.0838 10.1245 18.7878 10.1979 19.4864 10.3206C18.6112 10.1766 17.9289 10.1442 17.5795 10.1277C17.4647 10.1222 17.3858 10.1185 17.3478 10.113L17.2422 10.098L14.743 10.812L14.7215 10.8228C14.7179 10.8233 14.7132 10.8239 14.7073 10.8245C14.6758 10.8276 14.6399 10.828 14.5891 10.828H7.96507C7.91502 10.828 7.89309 10.8276 7.87028 10.8251C7.85558 10.8234 7.83706 10.8204 7.81171 10.8133C7.81758 10.8141 7.8236 10.8149 7.82975 10.8156C7.86958 10.8202 7.90401 10.8201 7.91499 10.82L7.91707 10.82H14.6122L17.0567 10.1103L14.6621 8.05779L14.6491 8.04802C14.4946 7.93217 14.323 7.8425 14.1473 7.77615ZM5.06507 7.6393V7.66002H4.65307C4.30844 7.66002 3.95326 7.67226 3.60834 7.68416L3.60384 7.68431C3.25417 7.69637 2.91494 7.70802 2.58907 7.70802C2.53555 7.70802 2.48496 7.71281 2.43723 7.72174C2.47995 7.71137 2.52419 7.70385 2.56974 7.69944C3.39364 7.67832 4.22788 7.65727 5.06507 7.6393ZM2.04608 7.92959C1.93943 8.0363 1.86755 8.16742 1.82673 8.2899L1.82129 8.3062L1.80401 8.37301L1.82516 8.28539C1.86309 8.15105 1.93993 8.0281 2.04608 7.92959ZM3.08045 14.736L3.09853 14.6637C3.09756 14.6877 3.09707 14.7118 3.09707 14.736C3.09707 14.7606 3.09766 14.7852 3.09883 14.8095L3.08045 14.736ZM6.4956 14.8083C6.49657 14.7844 6.49707 14.7602 6.49707 14.736C6.49707 14.7118 6.49657 14.6877 6.4956 14.6637L6.51368 14.736L6.4956 14.8083ZM16.8085 14.736L16.8265 14.6637C16.8256 14.6877 16.8251 14.7118 16.8251 14.736C16.8251 14.7605 16.8256 14.7848 16.8267 14.8092L16.8085 14.736ZM20.2236 14.8083C20.2246 14.7844 20.2251 14.7602 20.2251 14.736C20.2251 14.7118 20.2246 14.6877 20.2236 14.6637L20.2417 14.736L20.2236 14.8083ZM13.6139 8.65774C13.7768 8.69461 13.9256 8.7587 14.0375 8.83953L15.0014 9.66572L14.47 9.82001H11.0841L10.8976 8.56794C11.8166 8.58007 12.7114 8.61851 13.6139 8.65774ZM8.93499 8.56408L9.14877 9.82001H7.94667C7.93269 9.81625 7.91463 9.81126 7.88964 9.80436C7.85677 9.79528 7.81192 9.7829 7.74862 9.76563C7.50318 9.69869 7.02754 9.57177 6.06507 9.32982V8.59551C7.0121 8.56812 7.98127 8.56455 8.93499 8.56408ZM4.15307 8.66739V9.69602C4.15307 10.4382 4.67643 10.9882 5.32539 11.1829L5.33278 11.1851L7.48684 11.7596C7.69967 11.828 7.85543 11.828 7.9633 11.828L14.5942 11.828C14.6405 11.828 14.7216 11.8281 14.8068 11.8195C14.8784 11.8124 14.9855 11.7966 15.0958 11.7512L17.3219 11.1152C17.4031 11.1218 17.5033 11.1272 17.6214 11.1335C18.2941 11.1697 19.5451 11.2369 21.1426 11.7366C21.1465 11.7406 21.1494 11.7442 21.1513 11.7467M21.1513 11.7467L21.1524 11.7483C21.1524 11.7483 21.1513 11.7465 21.1499 11.7436M21.1513 11.7467C21.3637 12.1704 21.678 12.595 22.0525 12.9251L22.0534 12.9282C21.9735 13.318 21.9023 13.5739 21.8041 13.756H20.9972C20.593 12.7785 19.6367 12.076 18.5251 12.076C17.3656 12.076 16.4461 12.783 16.0514 13.756H7.2692C6.86502 12.7785 5.90869 12.076 4.79707 12.076C3.63765 12.076 2.71812 12.783 2.32341 13.756H2.07241C1.89064 12.6968 1.9103 11.978 2.06566 11.3552L2.06614 11.3533L2.75049 8.70717C3.04389 8.70422 3.34251 8.69392 3.63381 8.68387L3.6383 8.68372C3.8126 8.67771 3.98431 8.6718 4.15307 8.66739M18.5251 14.036C18.9209 14.036 19.2251 14.3402 19.2251 14.736C19.2251 15.1319 18.9209 15.436 18.5251 15.436C18.142 15.436 17.8251 15.0969 17.8251 14.736C17.8251 14.3402 18.1292 14.036 18.5251 14.036ZM4.79707 14.036C5.19292 14.036 5.49707 14.3402 5.49707 14.736C5.49707 15.1319 5.19292 15.436 4.79707 15.436C4.63849 15.436 4.46068 15.3605 4.31662 15.2165C4.17257 15.0724 4.09707 14.8946 4.09707 14.736C4.09707 14.3402 4.40121 14.036 4.79707 14.036Z" fill="#333333"/>
</g>
<defs>
<clipPath id="clip0_2039_23977">
<rect width="24" height="24" fill="white"/>
</clipPath>
</defs>
</svg>
