<svg width="24" height="24" viewBox="0 0 24 24" fill="none" xmlns="http://www.w3.org/2000/svg">
<path fill-rule="evenodd" clip-rule="evenodd" d="M14.6166 3.71712C15.0071 3.32659 15.6403 3.32659 16.0308 3.71712C16.4213 4.10764 16.4213 4.74081 16.0308 5.13133L15.3237 5.83844L18.1521 8.66686L18.8593 7.95976C19.2498 7.56923 19.8829 7.56923 20.2735 7.95976C20.664 8.35028 20.664 8.98345 20.2735 9.37397L19.5664 10.0811L20.9806 11.4953L16.0308 16.445C14.4687 18.0071 11.9361 18.0071 10.374 16.445L9.66686 15.7379L4.71712 20.6877C4.32659 21.0782 3.69343 21.0782 3.3029 20.6877C2.91238 20.2972 2.91238 19.664 3.3029 19.2735L8.25265 14.3237L7.54554 13.6166C5.98345 12.0545 5.98345 9.52185 7.54554 7.95976L12.4953 3.01001L13.9095 4.42422L14.6166 3.71712ZM12.4953 5.83844L18.1521 11.4953L14.6166 15.0308C13.8356 15.8119 12.5692 15.8119 11.7882 15.0308L8.95976 12.2024C8.17871 11.4213 8.17871 10.155 8.95976 9.37397L12.4953 5.83844Z" fill="#333333"/>
</svg>
