<svg width="40" height="40" viewBox="0 0 40 40" fill="none" xmlns="http://www.w3.org/2000/svg">
<path d="M2.16667 5.89567V7.02067C2.16667 10.3644 4.88542 13.0832 8.22917 13.0832H8.72917V16.2082C8.72917 16.7394 9.13542 17.1457 9.66667 17.1457C10.1979 17.1457 10.6042 16.7394 10.6042 16.2082V12.1457C10.6042 11.8957 10.5104 11.6457 10.3229 11.4894C10.1354 11.3019 9.91667 11.2082 9.66667 11.2082H8.22917C5.91667 11.2082 4.04167 9.33317 4.04167 7.02067V6.83317H9.79167C10.2292 6.89567 10.6667 6.64567 10.8229 6.20817C11.3542 4.70817 12.7604 3.70817 14.3542 3.70817C16.4167 3.70817 18.1042 5.39567 18.1042 7.45817V13.5519C18.1042 14.0207 17.9167 14.4582 17.6042 14.7707C17.2917 15.0832 16.8542 15.2707 16.3854 15.2707C15.4479 15.2707 14.6667 14.4894 14.6667 13.5519V10.3019C14.6667 9.77067 14.2604 9.36442 13.7292 9.36442C13.1979 9.36442 12.7917 9.77067 12.7917 10.3019V13.5519C12.7917 15.5207 14.4167 17.1457 16.3854 17.1457C17.3542 17.1457 18.2604 16.7707 18.9167 16.0832C19.5729 15.3957 19.9792 14.4894 19.9792 13.5519V7.45817C19.9792 4.36442 17.4479 1.83317 14.3542 1.83317C12.1979 1.83317 10.2604 3.05192 9.32292 4.95817H3.10417C2.57292 4.95817 2.16667 5.39567 2.16667 5.89567ZM9.66667 37.8644H10.6042C11.1354 37.8644 11.5417 37.4582 11.5417 36.9269C11.5417 36.3957 11.1354 35.9894 10.6042 35.9894H9.66667C9.13542 35.9894 8.72917 35.5832 8.72917 35.0519C8.72917 34.5207 9.13542 34.1144 9.66667 34.1144C10.1979 34.1144 10.6042 33.7082 10.6042 33.1769V23.8019C10.6042 23.2707 10.1979 22.8644 9.66667 22.8644C9.13542 22.8644 8.72917 23.2707 8.72917 23.8019V32.3957C7.63542 32.7707 6.85417 33.8332 6.85417 35.0519C6.85417 36.6144 8.10417 37.8644 9.66667 37.8644Z" fill="#73D700"/>
<path fill-rule="evenodd" clip-rule="evenodd" d="M8.92364 4.2915C10.033 2.37279 12.0867 1.1665 14.3542 1.1665C17.8161 1.1665 20.6458 3.99623 20.6458 7.45817V13.5519C20.6458 14.682 20.1581 15.7482 19.3989 16.5435C18.6114 17.3685 17.5283 17.8123 16.3854 17.8123C14.0485 17.8123 12.125 15.8889 12.125 13.5519V10.3019C12.125 9.40248 12.8297 8.69775 13.7292 8.69775C14.6286 8.69775 15.3333 9.40248 15.3333 10.3019V13.5519C15.3333 14.1212 15.8161 14.604 16.3854 14.604C16.6766 14.604 16.9448 14.4873 17.1328 14.2993C17.3208 14.1113 17.4375 13.8431 17.4375 13.5519V7.45817C17.4375 5.76386 16.0485 4.37484 14.3542 4.37484C13.0444 4.37484 11.8888 5.19544 11.4513 6.43074L11.4507 6.4324C11.1921 7.1567 10.4773 7.57909 9.75059 7.49984H4.74068C4.97447 9.21753 6.44738 10.5415 8.22917 10.5415H9.66667C10.0953 10.5415 10.4731 10.7063 10.7739 10.9979C11.1284 11.3076 11.2708 11.7536 11.2708 12.1457V16.2082C11.2708 17.1076 10.5661 17.8123 9.66667 17.8123C8.76723 17.8123 8.0625 17.1076 8.0625 16.2082V13.7478C4.42733 13.6591 1.5 10.6769 1.5 7.02067V5.89567C1.5 5.04201 2.19036 4.2915 3.10417 4.2915H8.92364ZM14.3542 2.49984C12.4526 2.49984 10.7468 3.57365 9.92115 5.25238L9.73798 5.62484H3.10417C2.95547 5.62484 2.83333 5.74933 2.83333 5.89567V7.02067C2.83333 9.99623 5.25361 12.4165 8.22917 12.4165H9.39583V16.2082C9.39583 16.3712 9.50361 16.479 9.66667 16.479C9.82973 16.479 9.9375 16.3712 9.9375 16.2082V12.1457C9.9375 12.1022 9.92907 12.0644 9.91784 12.0373C9.9069 12.0108 9.89674 12.0021 9.89613 12.0016L9.8729 11.9822L9.85151 11.9608C9.78062 11.8899 9.7283 11.8748 9.66667 11.8748H8.22917C5.54848 11.8748 3.375 9.70136 3.375 7.02067V6.1665H9.83905L9.88595 6.1732C10.0162 6.19182 10.1476 6.11697 10.1951 5.98395L10.8229 6.20817L10.1945 5.98561C10.8195 4.2209 12.4765 3.0415 14.3542 3.0415C16.7849 3.0415 18.7708 5.02748 18.7708 7.45817V13.5519C18.7708 14.1982 18.5126 14.8051 18.0756 15.2421C17.6386 15.6791 17.0317 15.9373 16.3854 15.9373C15.0797 15.9373 14 14.8576 14 13.5519V10.3019C14 10.1389 13.8922 10.0311 13.7292 10.0311C13.5661 10.0311 13.4583 10.1389 13.4583 10.3019V13.5519C13.4583 15.1525 14.7849 16.479 16.3854 16.479C17.18 16.479 17.9094 16.1729 18.4344 15.6229C18.9877 15.0432 19.3125 14.2968 19.3125 13.5519V7.45817C19.3125 4.73261 17.0797 2.49984 14.3542 2.49984ZM8.0625 23.8019C8.0625 22.9025 8.76723 22.1978 9.66667 22.1978C10.5661 22.1978 11.2708 22.9025 11.2708 23.8019V33.1769C11.2708 34.0764 10.5661 34.7811 9.66667 34.7811C9.50361 34.7811 9.39583 34.8889 9.39583 35.0519C9.39583 35.215 9.50361 35.3228 9.66667 35.3228H10.6042C11.5036 35.3228 12.2083 36.0275 12.2083 36.9269C12.2083 37.8264 11.5036 38.5311 10.6042 38.5311H9.66667C7.73598 38.5311 6.1875 36.9826 6.1875 35.0519C6.1875 33.72 6.94254 32.5354 8.0625 31.9573V23.8019ZM9.66667 23.5311C9.50361 23.5311 9.39583 23.6389 9.39583 23.8019V32.8719L8.94538 33.0263C8.12109 33.3089 7.52083 34.118 7.52083 35.0519C7.52083 36.2462 8.47236 37.1978 9.66667 37.1978H10.6042C10.7672 37.1978 10.875 37.09 10.875 36.9269C10.875 36.7639 10.7672 36.6561 10.6042 36.6561H9.66667C8.76723 36.6561 8.0625 35.9514 8.0625 35.0519C8.0625 34.1525 8.76723 33.4478 9.66667 33.4478C9.82973 33.4478 9.9375 33.34 9.9375 33.1769V23.8019C9.9375 23.6389 9.82973 23.5311 9.66667 23.5311Z" fill="#73D700"/>
<path d="M27.7917 34.0207C27.7917 28.9269 25.0729 24.1769 20.6979 21.6144C19.9479 21.1769 18.3542 19.8332 17.7917 19.3644C17.6354 19.2082 17.4167 19.1457 17.1667 19.1457H9.66667C9.13542 19.1457 8.72917 19.5519 8.72917 20.0832C8.72917 20.6144 9.13542 21.0207 9.66667 21.0207H16.8229C17.4167 21.5207 18.9167 22.7394 19.7292 23.2394C23.5417 25.4894 25.9167 29.6144 25.9167 34.0519V36.0207H15.2917C14.7604 36.0207 14.3542 35.6144 14.3542 35.0832C14.3542 34.5519 14.7604 34.1457 15.2917 34.1457H20.6042C21.1354 34.1457 21.5417 33.7394 21.5417 33.2082C21.5417 32.6769 21.1354 32.2707 20.6042 32.2707C19.3854 32.2707 18.4167 31.3019 18.4167 30.0832C18.4167 29.5519 18.0104 29.1457 17.4792 29.1457C16.9479 29.1457 16.5417 29.5519 16.5417 30.0832C16.5417 30.8957 16.7917 31.6457 17.1667 32.2707H15.2917C13.7292 32.2707 12.4792 33.5207 12.4792 35.0832C12.4792 36.6457 13.7292 37.8957 15.2917 37.8957H26.8542C32.9167 37.8957 37.8229 32.9894 37.8229 26.9269C37.8229 26.3957 37.4167 25.9894 36.8854 25.9894C36.3542 25.9894 35.9479 26.3957 35.9479 26.9269C35.9479 31.6144 32.3542 35.4894 27.7917 35.9582V34.0207Z" fill="#73D700"/>
<path fill-rule="evenodd" clip-rule="evenodd" d="M8.0625 20.0832C8.0625 19.1837 8.76723 18.479 9.66667 18.479H17.1667C17.5104 18.479 17.9163 18.5632 18.2379 18.8684C18.2696 18.8949 18.3042 18.9238 18.3413 18.9547C18.6412 19.2051 19.107 19.5941 19.5905 19.9802C20.1583 20.4336 20.7075 20.8482 21.0338 21.0386C25.6139 23.7212 28.4583 28.6912 28.4583 34.0207V35.1863C32.3307 34.4362 35.2812 31.0126 35.2812 26.9269C35.2812 26.0275 35.986 25.3228 36.8854 25.3228C37.7849 25.3228 38.4896 26.0275 38.4896 26.9269C38.4896 33.3576 33.2849 38.5623 26.8542 38.5623H15.2917C13.361 38.5623 11.8125 37.0139 11.8125 35.0832C11.8125 33.1525 13.361 31.604 15.2917 31.604H16.1274C15.9686 31.1323 15.875 30.6211 15.875 30.0832C15.875 29.1837 16.5797 28.479 17.4792 28.479C18.3786 28.479 19.0833 29.1837 19.0833 30.0832C19.0833 30.9337 19.7536 31.604 20.6042 31.604C21.5036 31.604 22.2083 32.3087 22.2083 33.2082C22.2083 34.1076 21.5036 34.8123 20.6042 34.8123H15.2917C15.1286 34.8123 15.0208 34.9201 15.0208 35.0832C15.0208 35.2462 15.1286 35.354 15.2917 35.354H25.25V34.0519C25.25 29.852 23.0012 25.9445 19.3903 23.8136L19.3797 23.8073C18.5984 23.3265 17.2616 22.2523 16.581 21.6873H9.66667C8.76723 21.6873 8.0625 20.9826 8.0625 20.0832ZM9.66667 19.8123C9.50361 19.8123 9.39583 19.9201 9.39583 20.0832C9.39583 20.2462 9.50361 20.354 9.66667 20.354H17.0662L17.2523 20.5107C17.8508 21.0147 19.3087 22.1967 20.0736 22.6686C24.0845 25.0383 26.5833 29.379 26.5833 34.0519V36.6873H15.2917C14.3922 36.6873 13.6875 35.9826 13.6875 35.0832C13.6875 34.1837 14.3922 33.479 15.2917 33.479H20.6042C20.7672 33.479 20.875 33.3712 20.875 33.2082C20.875 33.0451 20.7672 32.9373 20.6042 32.9373C19.0172 32.9373 17.75 31.6701 17.75 30.0832C17.75 29.9201 17.6422 29.8123 17.4792 29.8123C17.3161 29.8123 17.2083 29.9201 17.2083 30.0832C17.2083 30.7577 17.416 31.3905 17.7383 31.9277L18.3441 32.9373H15.2917C14.0974 32.9373 13.1458 33.8889 13.1458 35.0832C13.1458 36.2775 14.0974 37.229 15.2917 37.229H26.8542C32.5485 37.229 37.1562 32.6212 37.1562 26.9269C37.1562 26.7639 37.0485 26.6561 36.8854 26.6561C36.7224 26.6561 36.6146 26.7639 36.6146 26.9269C36.6146 31.9614 32.7572 36.1182 27.8598 36.6213L27.125 36.6968V34.0207C27.125 29.1626 24.5309 24.6321 20.361 22.1897C19.9373 21.9426 19.3157 21.4671 18.7585 21.0221C18.2626 20.6261 17.7847 20.227 17.4855 19.9772C17.4412 19.9402 17.4008 19.9065 17.3649 19.8766L17.3416 19.8572L17.3207 19.8363C17.3187 19.835 17.3137 19.8323 17.3035 19.8289C17.2813 19.8215 17.2381 19.8123 17.1667 19.8123H9.66667ZM17.3207 19.8363C17.3207 19.8363 17.3213 19.8368 17.3207 19.8363V19.8363Z" fill="#73D700"/>
<path d="M6.88542 22.8644C7.40318 22.8644 7.82292 22.4447 7.82292 21.9269C7.82292 21.4092 7.40318 20.9894 6.88542 20.9894C6.36765 20.9894 5.94792 21.4092 5.94792 21.9269C5.94792 22.4447 6.36765 22.8644 6.88542 22.8644Z" fill="#73D700"/>
<path fill-rule="evenodd" clip-rule="evenodd" d="M6.88542 21.6561C6.73584 21.6561 6.61458 21.7773 6.61458 21.9269C6.61458 22.0765 6.73584 22.1978 6.88542 22.1978C7.03499 22.1978 7.15625 22.0765 7.15625 21.9269C7.15625 21.7773 7.03499 21.6561 6.88542 21.6561ZM5.28125 21.9269C5.28125 21.041 5.99946 20.3228 6.88542 20.3228C7.77137 20.3228 8.48958 21.041 8.48958 21.9269C8.48958 22.8129 7.77137 23.5311 6.88542 23.5311C5.99946 23.5311 5.28125 22.8129 5.28125 21.9269Z" fill="#73D700"/>
</svg>
