<svg width="40" height="40" viewBox="0 0 40 40" fill="none" xmlns="http://www.w3.org/2000/svg">
<path d="M32.4002 21.6666C32.0335 21.6666 31.6502 21.5499 31.2835 21.4666C30.541 21.303 29.8113 21.0857 29.1002 20.8166C28.327 20.5353 27.4771 20.5499 26.714 20.8576C25.951 21.1653 25.3286 21.7443 24.9668 22.4833L24.6002 23.2333C22.9768 22.3302 21.4851 21.2087 20.1668 19.8999C18.8581 18.5816 17.7365 17.0899 16.8335 15.4666L17.5335 14.9999C18.2724 14.6381 18.8515 14.0158 19.1592 13.2528C19.4668 12.4897 19.4815 11.6398 19.2002 10.8666C18.9355 10.154 18.7184 9.42461 18.5502 8.68328C18.4668 8.31661 18.4002 7.93328 18.3502 7.54994C18.1478 6.37598 17.5329 5.31285 16.6162 4.55201C15.6995 3.79117 14.5413 3.38262 13.3502 3.39994H8.35017C7.63189 3.3932 6.92058 3.5413 6.26468 3.83416C5.60878 4.12702 5.02368 4.55777 4.54922 5.09708C4.07475 5.63639 3.72206 6.2716 3.51515 6.95947C3.30824 7.64733 3.25197 8.37171 3.35017 9.08328C4.23807 16.0656 7.42688 22.5531 12.4129 27.521C17.399 32.4889 23.898 35.6541 30.8835 36.5166H31.5168C32.7459 36.5184 33.9325 36.0675 34.8502 35.2499C35.3774 34.7784 35.7986 34.2002 36.0859 33.5538C36.3732 32.9074 36.5201 32.2073 36.5168 31.4999V26.4999C36.4964 25.3423 36.0748 24.2275 35.3241 23.3461C34.5733 22.4646 33.5399 21.871 32.4002 21.6666ZM33.2335 31.6666C33.2332 31.9033 33.1825 32.1371 33.0848 32.3526C32.9871 32.5682 32.8446 32.7604 32.6668 32.9166C32.4806 33.0774 32.2628 33.1975 32.0275 33.2693C31.7922 33.341 31.5444 33.3628 31.3002 33.3333C25.0583 32.533 19.2606 29.6774 14.8214 25.2171C10.3822 20.7568 7.55418 14.9455 6.7835 8.69994C6.75698 8.45581 6.78022 8.20883 6.85184 7.97393C6.92345 7.73903 7.04195 7.52109 7.20017 7.33328C7.35635 7.1555 7.5486 7.01301 7.76413 6.91531C7.97966 6.8176 8.21353 6.76691 8.45017 6.76661H13.4502C13.8377 6.75799 14.2162 6.88474 14.5204 7.12506C14.8246 7.36538 15.0355 7.70423 15.1168 8.08328C15.1835 8.53883 15.2668 8.98883 15.3668 9.43328C15.5594 10.3119 15.8156 11.1752 16.1335 12.0166L13.8002 13.0999C13.6007 13.1915 13.4212 13.3215 13.2721 13.4826C13.123 13.6437 13.0072 13.8326 12.9313 14.0386C12.8554 14.2446 12.821 14.4635 12.8299 14.6828C12.8389 14.9021 12.8911 15.1175 12.9835 15.3166C15.3822 20.4545 19.5122 24.5846 24.6502 26.9833C25.0559 27.15 25.5111 27.15 25.9168 26.9833C26.1247 26.9089 26.3157 26.794 26.4788 26.6453C26.6419 26.4965 26.7738 26.3168 26.8668 26.1166L27.9002 23.7833C28.7618 24.0914 29.6411 24.3474 30.5335 24.5499C30.9779 24.6499 31.4279 24.7333 31.8835 24.7999C32.2626 24.8813 32.6014 25.0922 32.8417 25.3964C33.082 25.7006 33.2088 26.079 33.2002 26.4666L33.2335 31.6666Z" fill="#73D700"/>
<path d="M25.0322 14.068C25.2014 14.4752 25.525 14.7989 25.9322 14.968C26.1326 15.0534 26.3478 15.0987 26.5656 15.1013L33.2322 15.1013C33.6743 15.1013 34.0982 14.9257 34.4108 14.6132C34.7233 14.3006 34.8989 13.8767 34.8989 13.4347C34.8989 12.9926 34.7233 12.5687 34.4108 12.2561C34.0982 11.9436 33.6743 11.768 33.2322 11.768L30.5989 11.768L36.0822 6.26798C36.3927 5.95571 36.5669 5.53329 36.5669 5.09299C36.5669 4.65268 36.3927 4.23025 36.0822 3.91798C35.77 3.60756 35.3475 3.43333 34.9072 3.43333C34.4669 3.43333 34.0445 3.60756 33.7322 3.91798L28.2322 9.40132L28.2322 6.76798C28.2322 6.32596 28.0566 5.90203 27.7441 5.58947C27.4315 5.27691 27.0076 5.10132 26.5656 5.10132C26.1235 5.10132 25.6996 5.27691 25.3871 5.58947C25.0745 5.90203 24.8989 6.32596 24.8989 6.76798L24.8989 13.4347C24.9015 13.6524 24.9468 13.8676 25.0322 14.068Z" fill="#73D700"/>
</svg>
