<svg width="24" height="24" viewBox="0 0 24 24" fill="none" xmlns="http://www.w3.org/2000/svg">
<path d="M20 20C19.6234 19.9997 19.2502 19.9284 18.9 19.79C17.8663 19.3223 16.7534 19.0542 15.62 19H8.38001C7.24665 19.0542 6.13377 19.3223 5.10001 19.79C4.51045 20.0197 3.86431 20.0616 3.25001 19.91C2.7283 19.7756 2.25241 19.5031 1.87234 19.1213C1.49226 18.7395 1.22203 18.2623 1.09001 17.74C0.935857 17.1293 0.977841 16.4855 1.21001 15.9C1.67616 14.8657 1.94413 13.7531 2.00001 12.62V11.38C1.94579 10.2467 1.67775 9.13377 1.21001 8.10001C0.977841 7.51448 0.935857 6.87073 1.09001 6.26001C1.22286 5.73646 1.4946 5.25848 1.87654 4.87654C2.25848 4.4946 2.73646 4.22286 3.26001 4.09001C3.87073 3.93586 4.51448 3.97784 5.10001 4.21001C6.13377 4.67775 7.24665 4.94579 8.38001 5.00001H15.62C16.7534 4.94579 17.8663 4.67775 18.9 4.21001C19.4896 3.98032 20.1357 3.93841 20.75 4.09001C21.2717 4.22444 21.7476 4.49688 22.1277 4.87871C22.5078 5.26054 22.778 5.73768 22.91 6.26001C23.0642 6.87073 23.0222 7.51448 22.79 8.10001C22.3223 9.13377 22.0542 10.2467 22 11.38V12.62C22.0559 13.7531 22.3239 14.8657 22.79 15.9C23.0222 16.4855 23.0642 17.1293 22.91 17.74C22.7772 18.2636 22.5054 18.7415 22.1235 19.1235C21.7415 19.5054 21.2636 19.7772 20.74 19.91C20.4979 19.9701 20.2494 20.0003 20 20ZM8.38001 17H15.62C16.9999 17.0562 18.3569 17.3717 19.62 17.93C19.7528 17.9901 19.8971 18.0204 20.0428 18.0188C20.1885 18.0172 20.3321 17.9839 20.4635 17.921C20.595 17.8581 20.7111 17.7673 20.8038 17.6548C20.8964 17.5424 20.9634 17.4111 21 17.27C21.0679 17.0655 21.0679 16.8445 21 16.64C20.4398 15.3775 20.1243 14.0202 20.07 12.64V11.38C20.1243 9.99986 20.4398 8.64253 21 7.38001C21.0679 7.1755 21.0679 6.95453 21 6.75001C20.9541 6.58262 20.8654 6.43005 20.7427 6.30731C20.62 6.18458 20.4674 6.09591 20.3 6.05001C20.0955 5.98213 19.8745 5.98213 19.67 6.05001C18.4075 6.61019 17.0502 6.92577 15.67 6.98001H8.38001C6.99986 6.92577 5.64253 6.61019 4.38001 6.05001C4.17856 5.98433 3.96146 5.98433 3.76001 6.05001C3.5828 6.0856 3.41855 6.16856 3.28472 6.29005C3.1509 6.41155 3.05251 6.56705 3.00001 6.74001C2.93433 6.94146 2.93433 7.15856 3.00001 7.36001C3.56019 8.62253 3.87577 9.97986 3.93001 11.36V12.6C3.87577 13.9802 3.56019 15.3375 3.00001 16.6C2.93213 16.8045 2.93213 17.0255 3.00001 17.23C3.04591 17.3974 3.13458 17.55 3.25732 17.6727C3.38005 17.7954 3.53262 17.8841 3.70001 17.93C3.90453 17.9979 4.1255 17.9979 4.33001 17.93C5.60867 17.3655 6.98319 17.0499 8.38001 17Z" fill="#333333"/>
</svg>
