<svg width="40" height="40" viewBox="0 0 40 40" fill="none" xmlns="http://www.w3.org/2000/svg">
<path fill-rule="evenodd" clip-rule="evenodd" d="M24.3609 6.19511C25.0118 5.54424 26.0671 5.54424 26.718 6.19511C27.3688 6.84599 27.3688 7.90126 26.718 8.55214L25.5394 9.73065L30.2535 14.4447L31.432 13.2662C32.0829 12.6153 33.1382 12.6153 33.789 13.2662C34.4399 13.9171 34.4399 14.9723 33.789 15.6232L32.6105 16.8017L34.9675 19.1587L26.718 27.4083C24.1145 30.0118 19.8934 30.0118 17.2899 27.4083L16.1114 26.2298L7.86178 34.4794C7.21091 35.1303 6.15563 35.1303 5.50476 34.4794C4.85388 33.8285 4.85388 32.7732 5.50476 32.1224L13.7543 23.8728L12.5758 22.6943C9.97233 20.0908 9.97233 15.8697 12.5758 13.2662L20.8254 5.0166L23.1824 7.37362L24.3609 6.19511ZM20.8254 9.73065L30.2535 19.1587L24.3609 25.0513C23.0592 26.353 20.9486 26.353 19.6469 25.0513L14.9328 20.3372C13.6311 19.0355 13.6311 16.925 14.9328 15.6232L20.8254 9.73065Z" fill="#73D700"/>
</svg>
