<svg width="40" height="40" viewBox="0 0 40 40" fill="none" xmlns="http://www.w3.org/2000/svg">
<path fill-rule="evenodd" clip-rule="evenodd" d="M20.0003 4.99984C11.7161 4.99984 5.00033 11.7156 5.00033 19.9998C5.00033 28.2841 11.7161 34.9998 20.0003 34.9998C28.2846 34.9998 35.0003 28.2841 35.0003 19.9998C35.0003 11.7156 28.2846 4.99984 20.0003 4.99984ZM1.66699 19.9998C1.66699 9.87462 9.8751 1.6665 20.0003 1.6665C30.1255 1.6665 38.3337 9.87462 38.3337 19.9998C38.3337 30.1251 30.1255 38.3332 20.0003 38.3332C9.8751 38.3332 1.66699 30.1251 1.66699 19.9998Z" fill="#73D700"/>
<path fill-rule="evenodd" clip-rule="evenodd" d="M20.4297 13.374C19.6539 13.2409 18.8559 13.3867 18.1773 13.7856C17.4986 14.1844 16.983 14.8106 16.7218 15.5532C16.4163 16.4215 15.4648 16.8778 14.5965 16.5724C13.7282 16.2669 13.2719 15.3154 13.5773 14.4471C14.0998 12.9619 15.131 11.7095 16.4883 10.9118C17.8457 10.1141 19.4415 9.82248 20.9933 10.0886C22.545 10.3548 23.9525 11.1616 24.9664 12.366C25.9801 13.5702 26.535 15.0943 26.5329 16.6683C26.5321 19.2189 24.6411 20.9033 23.2907 21.8036C22.5647 22.2876 21.8505 22.6435 21.3244 22.8773C21.0589 22.9953 20.8354 23.0848 20.6744 23.1462C20.5937 23.1769 20.5283 23.2007 20.4807 23.2176L20.4228 23.2379L20.4044 23.2442L20.3979 23.2464L20.3953 23.2472C20.3948 23.2474 20.3933 23.2479 19.8662 21.6668L20.3933 23.2479C19.52 23.539 18.5761 23.0671 18.2851 22.1939C17.9942 21.3212 18.4653 20.378 19.3374 20.0862L19.3353 20.087C19.3355 20.0869 19.3356 20.0869 19.3374 20.0862L19.364 20.0769C19.3896 20.0678 19.4317 20.0526 19.4877 20.0312C19.6001 19.9884 19.7672 19.9217 19.9706 19.8313C20.382 19.6484 20.9178 19.3794 21.4417 19.0301C22.591 18.2638 23.1995 17.4487 23.1995 16.6668L23.1995 16.6643C23.2007 15.8771 22.9233 15.1149 22.4163 14.5127C21.9093 13.9105 21.2056 13.5071 20.4297 13.374Z" fill="#73D700"/>
<path fill-rule="evenodd" clip-rule="evenodd" d="M18.333 28.3332C18.333 27.4127 19.0792 26.6665 19.9997 26.6665H20.0163C20.9368 26.6665 21.683 27.4127 21.683 28.3332C21.683 29.2536 20.9368 29.9998 20.0163 29.9998H19.9997C19.0792 29.9998 18.333 29.2536 18.333 28.3332Z" fill="#73D700"/>
</svg>
