<svg width="24" height="24" viewBox="0 0 24 24" fill="none" xmlns="http://www.w3.org/2000/svg">
<path d="M12.4115 19.4215C11.1705 19.414 9.96848 18.9871 9.00082 18.2101C8.03317 17.433 7.35674 16.3516 7.08148 15.1415L5.98148 10.1415C5.73237 9.06144 5.18894 8.0715 4.41148 7.28148C4.13276 6.96049 3.98609 6.54576 4.00104 6.12091C4.01599 5.69605 4.19146 5.29267 4.49206 4.99206C4.79267 4.69146 5.19605 4.51599 5.62091 4.50104C6.04576 4.48609 6.46049 4.63276 6.78148 4.91148C8.0263 6.14531 8.89056 7.7107 9.27148 9.42148L10.4115 14.4215C10.5294 14.9467 10.8436 15.407 11.2897 15.7081C11.7359 16.0093 12.2803 16.1285 12.8115 16.0415L14.7015 15.7215C16.0315 15.4964 17.3937 15.5509 18.7015 15.8815C19.1338 15.9902 19.5052 16.2662 19.734 16.6488C19.9628 17.0314 20.0302 17.4892 19.9215 17.9215C19.8127 18.3538 19.5367 18.7252 19.1542 18.954C18.7716 19.1828 18.3138 19.2502 17.8815 19.1415C17.0311 18.9285 16.1457 18.8944 15.2815 19.0415L13.3915 19.3515C13.0675 19.4035 12.7396 19.427 12.4115 19.4215ZM5.59148 5.42148C5.41152 5.423 5.23928 5.49477 5.11148 5.62148C5.0424 5.68516 4.98726 5.76247 4.94954 5.84853C4.91183 5.93459 4.89235 6.02753 4.89235 6.12148C4.89235 6.21544 4.91183 6.30838 4.94954 6.39444C4.98726 6.4805 5.0424 6.5578 5.11148 6.62148C6.04299 7.54482 6.68577 8.7192 6.96148 10.0015L8.07148 15.0015C8.32824 16.1113 8.99632 17.0824 9.94095 17.719C10.8856 18.3555 12.0365 18.6101 13.1615 18.4315L15.0515 18.1215C16.0489 17.9523 17.0707 17.9932 18.0515 18.2415C18.1391 18.2634 18.2303 18.2675 18.3195 18.2538C18.4088 18.2401 18.4945 18.2087 18.5715 18.1615C18.7251 18.0667 18.8362 17.9162 18.8815 17.7415C18.9031 17.6555 18.9072 17.566 18.8934 17.4783C18.8797 17.3907 18.8484 17.3068 18.8015 17.2315C18.7577 17.1528 18.6976 17.0844 18.6251 17.0309C18.5527 16.9775 18.4696 16.9401 18.3815 16.9215C17.2171 16.6303 16.0051 16.5827 14.8215 16.7815L12.9315 17.0915C12.1407 17.2152 11.3326 17.0282 10.6765 16.5697C10.0204 16.1112 9.56712 15.4167 9.41148 14.6315L8.30148 9.63148C7.95438 8.11514 7.18464 6.72822 6.08148 5.63148C6.01853 5.56481 5.94255 5.51177 5.85827 5.47565C5.77399 5.43953 5.68318 5.42109 5.59148 5.42148Z" fill="#333333"/>
<path fill-rule="evenodd" clip-rule="evenodd" d="M6.4113 5.25393C6.42065 5.26305 6.42985 5.27234 6.43891 5.28178C7.15725 5.99708 7.74204 6.82847 8.17132 7.73643C7.7447 6.82701 7.16085 5.99444 6.44207 5.27908C6.43194 5.27051 6.42168 5.26213 6.4113 5.25393ZM9.07726 10.8189L9.90207 14.5342C10.0326 15.1928 10.4127 15.7753 10.9629 16.1599C11.5127 16.5441 12.1897 16.701 12.8524 16.5978C12.853 16.5977 12.8536 16.5976 12.8542 16.5975L14.7387 16.2884C14.7383 16.2884 14.739 16.2883 14.7387 16.2884C15.9873 16.0788 17.2666 16.1284 18.4951 16.4345C18.6494 16.4686 18.7948 16.5348 18.922 16.6287C19.0486 16.7221 19.1543 16.8409 19.2323 16.9775C19.3111 17.1071 19.3639 17.2509 19.3874 17.4009C19.4115 17.5549 19.4044 17.7122 19.3664 17.8634L19.3655 17.867C19.3113 18.0759 19.2023 18.2646 19.052 18.4148C19.2404 18.2562 19.3757 18.0414 19.4366 17.7995C19.513 17.4958 19.4656 17.1742 19.3049 16.9054C19.1441 16.6367 18.8832 16.4428 18.5795 16.3664C17.3391 16.0528 16.0464 16.001 14.785 16.2145C14.7849 16.2145 14.785 16.2145 14.785 16.2145L12.895 16.5345L12.8923 16.5349C12.2353 16.6426 11.5619 16.4951 11.01 16.1226C10.4584 15.7502 10.0698 15.1812 9.92382 14.5319C9.92376 14.5316 9.92388 14.5322 9.92382 14.5319L9.07726 10.8189ZM5.60332 4.00135C6.15462 3.98195 6.69278 4.17227 7.10931 4.53395L7.12176 4.54476L7.13347 4.55637C8.44599 5.85731 9.35736 7.50776 9.75925 9.31154C9.75934 9.31196 9.75944 9.31239 9.75953 9.31282L10.8993 14.312C10.9893 14.7127 11.2291 15.0639 11.5695 15.2937C11.9096 15.5233 12.3245 15.6143 12.7294 15.5483C12.7298 15.5482 12.7302 15.5481 12.7306 15.5481L14.618 15.2285C16.0165 14.9918 17.4489 15.0491 18.824 15.3967C19.3847 15.5379 19.8663 15.896 20.1631 16.3922C20.46 16.8886 20.5475 17.4825 20.4064 18.0435C20.2653 18.6044 19.9072 19.0862 19.4108 19.3831C18.9145 19.6799 18.3206 19.7674 17.7598 19.6264C16.9766 19.4303 16.1613 19.399 15.3654 19.5344L15.3624 19.5349L13.4724 19.8449L13.4708 19.8452C13.1187 19.9017 12.7624 19.9272 12.4059 19.9215C12.4067 19.9215 12.4076 19.9215 12.4085 19.9215L12.4115 19.4215L12.4031 19.9214C12.404 19.9214 12.405 19.9214 12.4059 19.9215C11.053 19.9127 9.74271 19.4471 8.68776 18.5999C7.63214 17.7523 6.89422 16.5725 6.59394 15.2524L6.59315 15.2489L5.49372 10.2514C5.49391 10.2523 5.49409 10.2531 5.49428 10.2539L5.98148 10.1415L5.49316 10.2489L5.49372 10.2514C5.26511 9.26234 4.7672 8.35579 4.05511 7.63219L4.04417 7.62108L4.03395 7.60931C3.67227 7.19278 3.48195 6.65462 3.50135 6.10332C3.52075 5.55202 3.74844 5.02858 4.13851 4.63851C4.52858 4.24844 5.05202 4.02075 5.60332 4.00135ZM5.59464 5.92148C5.54547 5.92217 5.49847 5.9419 5.46353 5.97654L5.45706 5.98296L5.45036 5.98913C5.43207 6.00599 5.41748 6.02645 5.40749 6.04923C5.39751 6.07201 5.39235 6.09661 5.39235 6.12148C5.39235 6.14636 5.39751 6.17096 5.40749 6.19374C5.41748 6.21652 5.43207 6.23698 5.45036 6.25384L5.45703 6.25999L5.46348 6.26638C6.46348 7.25761 7.15365 8.51823 7.44995 9.8947C7.45007 9.89526 7.45019 9.89582 7.45031 9.89638L8.5591 14.8909C8.78768 15.8765 9.38128 16.7389 10.2204 17.3043C11.0597 17.8699 12.0822 18.0963 13.0818 17.9379C13.0822 17.9378 13.0826 17.9377 13.0831 17.9377L14.9679 17.6285C14.9683 17.6284 14.9688 17.6284 14.9692 17.6283C16.0349 17.4477 17.1264 17.4915 18.1742 17.7568L18.0515 18.2415L18.1726 17.7564C18.1957 17.7622 18.2199 17.7633 18.2435 17.7596C18.2669 17.756 18.2894 17.7478 18.3096 17.7356C18.3526 17.7088 18.3838 17.6667 18.397 17.6179C18.4019 17.5976 18.4027 17.5765 18.3995 17.5558C18.3961 17.5346 18.3885 17.5142 18.3772 17.496L18.3706 17.4854L18.3646 17.4746C18.3555 17.4584 18.3431 17.4443 18.3282 17.4332C18.3132 17.4222 18.2961 17.4145 18.2779 17.4106L18.269 17.4088L18.2602 17.4065C17.1626 17.1321 16.0201 17.0871 14.9043 17.2746L14.9024 17.2749L13.0088 17.5855C12.0904 17.7292 11.152 17.512 10.3901 16.9795C9.6298 16.4482 9.10399 15.6439 8.92218 14.7345L7.81409 9.74305C7.81397 9.74253 7.81385 9.74201 7.81373 9.74149C7.48754 8.31788 6.76471 7.0158 5.72896 5.98607L5.72337 5.9805L5.71795 5.97476C5.70197 5.95785 5.6827 5.94439 5.66131 5.93522C5.64024 5.92619 5.61756 5.92152 5.59464 5.92148Z" fill="#333333"/>
</svg>
