<svg width="24" height="24" viewBox="0 0 24 24" fill="none" xmlns="http://www.w3.org/2000/svg">
<path d="M22.3 7.19998C22.2 7.09998 22.2 6.99998 22.1 6.89998L17.1 1.89998C17 1.79998 16.9 1.69998 16.8 1.69998C16.7 1.69998 16.5 1.59998 16.4 1.59998H7.60001C7.30001 1.59998 7.10001 1.69998 6.90001 1.89998L1.90001 6.89998C1.70001 7.09998 1.60001 7.39998 1.60001 7.59998V16.3C1.60001 16.6 1.70001 16.8 1.90001 17L6.90001 22C7.10001 22.2 7.30001 22.3 7.60001 22.3H16.3C16.6 22.3 16.8 22.2 17 22L22 17C22.2 16.8 22.3 16.6 22.3 16.3V7.59998C22.4 7.49998 22.3 7.39998 22.3 7.19998ZM16 3.59998L20.4 7.99998V16L16 20.4H8.00001L3.60001 16V7.99998L8.00001 3.59998H16Z" fill="#333333"/>
<path fill-rule="evenodd" clip-rule="evenodd" d="M16 10C15.9 10 15.7 10.1 15.6 10.1C15.5 10.2 15.5 10.3 15.5 10.5V13.5C15.5 13.6 15.6 13.8 15.6 13.9C15.7 14 15.8 14 16 14C16.1 14 16.3 13.9 16.4 13.9C16.5 13.8 16.5 13.7 16.5 13.5V12.5H17.5C17.6 12.5 17.8 12.4 17.9 12.4C18 12.3 18 12.2 18 12V10.5C18 10.4 17.9 10.2 17.9 10.1C17.8 10 17.7 10 17.5 10H16ZM16.5 11H17V11.5H16.5V11Z" fill="#333333"/>
<path fill-rule="evenodd" clip-rule="evenodd" d="M6.5 10C6.4 10 6.2 10.1 6.1 10.1C6.1 10.2 6 10.4 6 10.5V12C6 12.1 6.1 12.3 6.1 12.4C6.2 12.5 6.3 12.5 6.5 12.5H7.5V13H6.5C6.4 13 6.2 13.1 6.1 13.1C6.1 13.2 6 13.4 6 13.5C6 13.6 6.1 13.8 6.1 13.9C6.2 13.9 6.4 14 6.5 14H8C8.1 14 8.3 13.9 8.4 13.9C8.5 13.8 8.5 13.7 8.5 13.5V12C8.5 11.9 8.4 11.7 8.4 11.6C8.3 11.5 8.2 11.5 8 11.5H7V11H8C8.1 11 8.3 10.9 8.4 10.9C8.5 10.8 8.5 10.7 8.5 10.5C8.5 10.4 8.4 10.2 8.4 10.1C8.3 10.1 8.1 10 8 10H6.5ZM9.5 10C9.4 10 9.2 10.1 9.1 10.1C9.1 10.2 9 10.4 9 10.5C9 10.6 9.1 10.8 9.1 10.9C9.2 10.9 9.4 11 9.5 11H11.5C11.6 11 11.8 10.9 11.9 10.9C12 10.8 12 10.7 12 10.5C12 10.4 11.9 10.2 11.9 10.1C11.8 10 11.7 10 11.5 10H9.5Z" fill="#333333"/>
<path fill-rule="evenodd" clip-rule="evenodd" d="M10.5 10C10.4 10 10.2 10.1 10.1 10.1C10 10.2 10 10.4 10 10.5V13.5C10 13.6 10.1 13.8 10.1 13.9C10.2 14 10.3 14 10.5 14C10.6 14 10.8 13.9 10.9 13.9C11 13.8 11 13.7 11 13.5V10.5C11 10.4 10.9 10.2 10.9 10.1C10.8 10.1 10.6 10 10.5 10ZM13 10C12.9 10 12.7 10.1 12.6 10.1C12.5 10.2 12.5 10.3 12.5 10.5V13.5C12.5 13.6 12.6 13.8 12.6 13.9C12.7 14 12.8 14 13 14H14.5C14.6 14 14.8 13.9 14.9 13.9C15 13.8 15 13.7 15 13.5V10.5C15 10.4 14.9 10.2 14.9 10.1C14.8 10 14.7 10 14.5 10H13ZM13.5 11H14V13H13.5V11Z" fill="#333333"/>
</svg>
