<svg width="24" height="24" viewBox="0 0 24 24" fill="none" xmlns="http://www.w3.org/2000/svg">
<path fill-rule="evenodd" clip-rule="evenodd" d="M18 4H6C4.89543 4 4 4.89543 4 6V18C4 19.1046 4.89543 20 6 20H18C19.1046 20 20 19.1046 20 18V6C20 4.89543 19.1046 4 18 4ZM6 2C3.79086 2 2 3.79086 2 6V18C2 20.2091 3.79086 22 6 22H18C20.2091 22 22 20.2091 22 18V6C22 3.79086 20.2091 2 18 2H6Z" fill="#333333"/>
<path d="M13.5078 10.0029L12.2773 15H10.6812L10.2026 12.8228C10.1935 12.7817 10.1787 12.7122 10.1582 12.6143C10.14 12.5163 10.1183 12.4046 10.0933 12.2793C10.0705 12.154 10.0488 12.0309 10.0283 11.9102C10.0101 11.7871 9.99642 11.6834 9.9873 11.5991C9.97819 11.6834 9.96338 11.7871 9.94287 11.9102C9.92236 12.0309 9.89958 12.154 9.87451 12.2793C9.85173 12.4046 9.82894 12.5163 9.80615 12.6143C9.78564 12.7122 9.77083 12.7817 9.76172 12.8228L9.27979 15H7.68359L6.44629 10.0029H7.74854L8.29199 12.5083C8.30566 12.5698 8.32389 12.6576 8.34668 12.7715C8.37174 12.8831 8.39681 13.0062 8.42188 13.1406C8.44922 13.2728 8.47428 13.4004 8.49707 13.5234C8.51986 13.6465 8.53581 13.749 8.54492 13.8311C8.56315 13.6898 8.58708 13.5291 8.6167 13.3491C8.6486 13.1691 8.68278 12.9868 8.71924 12.8022C8.75798 12.6154 8.79443 12.4422 8.82861 12.2827C8.86279 12.1232 8.89242 11.9933 8.91748 11.8931L9.3584 10.0029H10.6094L11.0366 11.8931C11.0594 11.991 11.0879 12.1209 11.1221 12.2827C11.1585 12.4422 11.195 12.6154 11.2314 12.8022C11.2702 12.9891 11.3055 13.1737 11.3374 13.356C11.3693 13.536 11.3932 13.6943 11.4092 13.8311C11.4229 13.7171 11.4456 13.5736 11.4775 13.4004C11.5094 13.2249 11.5413 13.0552 11.5732 12.8911C11.6074 12.7248 11.6336 12.5994 11.6519 12.5151L12.2056 10.0029H13.5078Z" fill="#333333"/>
<path d="M15.8789 11.0386C15.7194 11.0386 15.577 11.0728 15.4517 11.1411C15.3263 11.2072 15.2192 11.304 15.1304 11.4316C15.0415 11.5592 14.9731 11.7153 14.9253 11.8999C14.8797 12.0822 14.8569 12.2896 14.8569 12.522C14.8569 12.8364 14.8968 13.1007 14.9766 13.3149C15.0563 13.5291 15.1771 13.6909 15.3389 13.8003C15.5029 13.9097 15.708 13.9644 15.9541 13.9644C16.1774 13.9644 16.3916 13.9336 16.5967 13.8721C16.804 13.8105 17.0125 13.7365 17.2222 13.6499V14.7915C17.0011 14.8895 16.7744 14.9601 16.542 15.0034C16.3118 15.0467 16.0669 15.0684 15.8071 15.0684C15.2648 15.0684 14.8205 14.9613 14.4741 14.7471C14.13 14.5306 13.876 14.231 13.7119 13.8481C13.5501 13.4653 13.4692 13.021 13.4692 12.5151C13.4692 12.1369 13.5216 11.7905 13.6265 11.4761C13.7336 11.1616 13.8896 10.8893 14.0947 10.6592C14.2998 10.4268 14.5527 10.2479 14.8535 10.1226C15.1566 9.99495 15.5029 9.93115 15.8926 9.93115C16.1341 9.93115 16.3882 9.95964 16.6548 10.0166C16.9237 10.0713 17.1857 10.1602 17.4409 10.2832L17.0273 11.3462C16.8451 11.2596 16.6605 11.1867 16.4736 11.1274C16.2868 11.0682 16.0885 11.0386 15.8789 11.0386Z" fill="#333333"/>
</svg>
