<svg width="40" height="40" viewBox="0 0 40 40" fill="none" xmlns="http://www.w3.org/2000/svg">
<path fill-rule="evenodd" clip-rule="evenodd" d="M28.9271 10.8833C29.5869 11.4924 30.0001 12.3646 30.0001 13.3333V26.6666H33.3334V33.3333C33.3334 35.1742 31.841 36.6666 30.0001 36.6666H10.0001C8.15913 36.6666 6.66675 35.1742 6.66675 33.3333V26.6666H10.0001V13.3333C10.0001 12.0881 10.6828 11.0025 11.6943 10.4301C11.6761 10.2893 11.6667 10.1457 11.6667 9.99992V6.66659C11.6667 4.82564 13.1591 3.33325 15.0001 3.33325H25.0001C26.841 3.33325 28.3334 4.82564 28.3334 6.66659V9.99992C28.3334 10.1087 28.3282 10.2163 28.318 10.3224C28.4578 10.3976 28.5892 10.4942 28.7072 10.6123C28.7914 10.6965 28.8647 10.7874 28.9271 10.8833ZM15.0001 6.66659H25.0001V9.99992H15.0001V6.66659ZM23.6292 13.3333L18.9138 18.0487C18.2629 18.6996 18.2629 19.7548 18.9138 20.4057C19.5647 21.0566 20.62 21.0566 21.2708 20.4057L26.6667 15.0098V26.6666H13.3334V13.3333H23.6292ZM30.0001 29.9999V33.3333H10.0001V29.9999H30.0001Z" fill="#73D700"/>
</svg>
