<svg width="24" height="24" viewBox="0 0 24 24" fill="none" xmlns="http://www.w3.org/2000/svg">
<path fill-rule="evenodd" clip-rule="evenodd" d="M17.3562 6.53006C17.7521 6.89547 18 7.41878 18 8V16H20V20C20 21.1046 19.1046 22 18 22H6C4.89543 22 4 21.1046 4 20V16H6V8C6 7.25293 6.40961 6.60152 7.0165 6.25812C7.00561 6.17362 7 6.08747 7 6V4C7 2.89543 7.89543 2 9 2H15C16.1046 2 17 2.89543 17 4V6C17 6.06527 16.9969 6.12981 16.9908 6.19348C17.0747 6.23862 17.1535 6.29659 17.2243 6.36742C17.2748 6.41792 17.3188 6.47249 17.3562 6.53006ZM9 4H15V6H9V4ZM14.1775 8L11.3482 10.8293C10.9577 11.2198 10.9577 11.853 11.3482 12.2435C11.7388 12.634 12.3719 12.634 12.7624 12.2435L16 9.00592V16H8V8H14.1775ZM18 18V20H6V18H18Z" fill="#333333"/>
</svg>
