<svg width="24" height="24" viewBox="0 0 24 24" fill="none" xmlns="http://www.w3.org/2000/svg">
<g clip-path="url(#clip0_1836_22930)">
<path fill-rule="evenodd" clip-rule="evenodd" d="M7.50967 19.8023L8.7805 21.0732C9.10362 21.3963 9.62811 21.3963 9.95123 21.0732L10.5869 20.4375C10.9098 20.1146 11.4345 20.1143 11.7577 20.4375C12.0808 20.7606 12.0805 21.2854 11.7577 21.6082L11.122 22.2439C10.1529 23.213 8.57884 23.213 7.60976 22.2439L5.85367 20.4878C5.53025 20.1644 5.53025 19.6405 5.85367 19.3171C6.17679 18.994 6.17679 18.4695 5.85367 18.1463C5.53055 17.8232 5.00606 17.8232 4.68293 18.1463C4.35952 18.4698 3.83562 18.4698 3.5122 18.1463L1.75611 16.3902C0.787033 15.4212 0.787033 13.8471 1.75611 12.878L12.8781 1.7561C13.8471 0.787024 15.4212 0.787024 16.3903 1.7561L18.1464 3.51219C18.4698 3.83561 18.4698 4.35951 18.1464 4.68293C17.8232 5.00605 17.8232 5.53054 18.1464 5.85366C18.4695 6.17678 18.994 6.17678 19.3171 5.85366C19.6405 5.53024 20.1644 5.53024 20.4878 5.85366L22.2439 7.60976C23.213 8.57883 23.213 10.1529 22.2439 11.122L14.2411 19.1248C13.918 19.4479 13.3935 19.4479 13.0704 19.1248C12.7472 18.8017 12.7472 18.2772 13.0704 17.954L21.0732 9.95122C21.3963 9.6281 21.3963 9.10361 21.0732 8.78049L19.8023 7.50966C18.8795 7.95014 17.7395 7.78829 16.9756 7.02439C16.2117 6.26049 16.0499 5.12049 16.4904 4.19766L15.2195 2.92683C14.8964 2.60371 14.3719 2.60371 14.0488 2.92683L2.92684 14.0488C2.60372 14.3719 2.60372 14.8964 2.92684 15.2195L4.19767 16.4903C5.1205 16.0499 6.2605 16.2117 7.0244 16.9756C7.7883 17.7395 7.95015 18.8795 7.50967 19.8023Z" fill="#333333"/>
<path fill-rule="evenodd" clip-rule="evenodd" d="M12.878 7.60974L16.3902 11.1219C16.7134 11.4451 17.2378 11.4451 17.561 11.1219C17.8841 10.7988 17.8841 10.2743 17.561 9.9512L14.0488 6.439C13.7257 6.11588 13.2012 6.11588 12.878 6.439C12.5549 6.76213 12.5549 7.28661 12.878 7.60974Z" fill="#333333"/>
<path fill-rule="evenodd" clip-rule="evenodd" d="M8.78042 11.7075L7.02433 13.4636C6.70121 13.7867 6.70117 14.3112 7.02429 14.6343C7.34742 14.9575 7.87194 14.9574 8.19506 14.6343L9.95116 12.8782C10.2743 12.5551 10.2743 12.0306 9.9512 11.7074C9.62807 11.3843 9.10355 11.3844 8.78042 11.7075Z" fill="#333333"/>
<path fill-rule="evenodd" clip-rule="evenodd" d="M13.4634 11.7073L9.36584 15.8049C9.04272 16.128 9.04272 16.6525 9.36584 16.9756C9.68896 17.2987 10.2134 17.2987 10.5366 16.9756L14.6341 12.878C14.9573 12.5549 14.9573 12.0304 14.6341 11.7073C14.311 11.3842 13.7865 11.3842 13.4634 11.7073Z" fill="#333333"/>
</g>
<defs>
<clipPath id="clip0_1836_22930">
<rect width="24" height="24" fill="white"/>
</clipPath>
</defs>
</svg>
