<svg width="24" height="24" viewBox="0 0 24 24" fill="none" xmlns="http://www.w3.org/2000/svg">
<path fill-rule="evenodd" clip-rule="evenodd" d="M18.107 18.8103C18.6899 17.8248 19 16.673 19 16C19 14.8954 18.1046 14 17 14C15.8954 14 15 14.8954 15 16C15 16.673 15.3101 17.8248 15.893 18.8103C16.1741 19.2855 16.4622 19.6238 16.7063 19.8227C16.8738 19.9591 16.9704 19.9916 17 19.9987C17.0296 19.9916 17.1262 19.9591 17.2937 19.8227C17.5378 19.6238 17.8259 19.2855 18.107 18.8103ZM16.9901 20.0006C16.9901 20.0005 16.991 20.0004 16.9928 20.0002L16.9901 20.0006ZM17.0072 20.0002C17.009 20.0004 17.0099 20.0005 17.0099 20.0006L17.0072 20.0002ZM17 22C19.2091 22 21 18.2091 21 16C21 13.7909 19.2091 12 17 12C14.7909 12 13 13.7909 13 16C13 18.2091 14.7909 22 17 22Z" fill="#333333"/>
<rect x="16" y="2" width="2" height="11" rx="1" fill="#333333"/>
<path d="M4 2C3.44772 2 3 2.44772 3 3V7C3 7.04612 3.00312 7.0915 3.00916 7.13596C3.00213 7.36278 3.07185 7.59324 3.2233 7.78542L5.97001 11.2708C5.97978 11.2832 5.98978 11.2953 6 11.3071V21C6 21.5523 6.44772 22 7 22C7.55228 22 8 21.5523 8 21V11.2651C8.06961 11.2134 8.13359 11.1518 8.18982 11.0804L10.7865 7.78542C10.9511 7.57652 11.0192 7.32241 10.9971 7.07689C10.999 7.05152 11 7.02587 11 7V3C11 2.44772 10.5523 2 10 2C9.44772 2 9 2.44772 9 3V6.82117L8 8.0901V3C8 2.44772 7.55228 2 7 2C6.44772 2 6 2.44772 6 3V8.07763L5 6.80871V3C5 2.44772 4.55228 2 4 2Z" fill="#333333"/>
</svg>
