<svg width="40" height="40" viewBox="0 0 40 40" fill="none" xmlns="http://www.w3.org/2000/svg">
<path fill-rule="evenodd" clip-rule="evenodd" d="M19.9999 1.66675C20.6343 1.66675 21.2136 2.02687 21.4944 2.59571L26.257 12.2442L36.9076 13.8009C37.5352 13.8927 38.0563 14.3327 38.252 14.936C38.4476 15.5394 38.2838 16.2015 37.8294 16.644L30.1241 24.149L31.9426 34.7517C32.0498 35.377 31.7927 36.009 31.2794 36.3818C30.7661 36.7547 30.0857 36.8038 29.5241 36.5085L19.9999 31.4998L10.4756 36.5085C9.91411 36.8038 9.23363 36.7547 8.72033 36.3818C8.20703 36.009 7.94996 35.377 8.0572 34.7517L9.87568 24.149L2.17033 16.644C1.71597 16.2015 1.55218 15.5394 1.74781 14.936C1.94344 14.3327 2.46457 13.8927 3.09217 13.8009L13.7428 12.2442L18.5054 2.59571C18.7862 2.02687 19.3655 1.66675 19.9999 1.66675ZM19.9999 7.09884L16.3444 14.5045C16.1018 14.9959 15.6332 15.3366 15.0909 15.4159L6.9139 16.6111L12.8294 22.3728C13.2226 22.7557 13.402 23.3076 13.3092 23.8485L11.9135 31.9862L19.2241 28.1416C19.7098 27.8862 20.29 27.8862 20.7756 28.1416L28.0863 31.9862L26.6905 23.8485C26.5978 23.3076 26.7772 22.7557 27.1703 22.3728L33.0859 16.6111L24.9088 15.4159C24.3666 15.3366 23.8979 14.9959 23.6554 14.5045L19.9999 7.09884Z" fill="#73D700"/>
</svg>
