<svg width="24" height="24" viewBox="0 0 24 24" fill="none" xmlns="http://www.w3.org/2000/svg">
<path d="M19.5 9.375C19.5 7.38588 18.7098 5.47822 17.3033 4.0717C15.8968 2.66518 13.9891 1.875 12 1.875C10.0353 1.87465 8.14895 2.64523 6.74645 4.02108C5.34395 5.39693 4.53733 7.26818 4.5 9.2325C3.90326 9.2325 3.33097 9.46955 2.90901 9.89151C2.48705 10.3135 2.25 10.8858 2.25 11.4825V14.4825C2.25 15.0792 2.48705 15.6515 2.90901 16.0735C3.33097 16.4954 3.90326 16.7325 4.5 16.7325H6C6.59674 16.7325 7.16903 16.4954 7.59099 16.0735C8.01295 15.6515 8.25 15.0792 8.25 14.4825V11.4825C8.25 10.8858 8.01295 10.3135 7.59099 9.89151C7.16903 9.46955 6.59674 9.2325 6 9.2325C6.03721 7.66603 6.68575 6.17626 7.80696 5.08168C8.92817 3.9871 10.4331 3.37456 12 3.375C13.5913 3.375 15.1174 4.00714 16.2426 5.13236C17.3679 6.25758 18 7.7837 18 9.375C17.4033 9.375 16.831 9.61205 16.409 10.034C15.9871 10.456 15.75 11.0283 15.75 11.625V14.625C15.752 15.1209 15.9178 15.6023 16.2216 15.9943C16.5254 16.3862 16.9502 16.6669 17.43 16.7925C16.863 17.8225 15.9154 18.5898 14.79 18.93C14.6098 18.5406 14.322 18.2109 13.9605 17.9796C13.5991 17.7484 13.1791 17.6254 12.75 17.625H11.25C10.6533 17.625 10.081 17.8621 9.65901 18.284C9.23705 18.706 9 19.2783 9 19.875C9 20.4717 9.23705 21.044 9.65901 21.466C10.081 21.8879 10.6533 22.125 11.25 22.125H12.75C13.2469 22.1226 13.7291 21.9557 14.1212 21.6504C14.5133 21.3451 14.7933 20.9186 14.9175 20.4375C15.8389 20.2126 16.6938 19.7724 17.4121 19.1532C18.1305 18.5339 18.6918 17.7532 19.05 16.875H19.5C20.0967 16.875 20.669 16.6379 21.091 16.216C21.5129 15.794 21.75 15.2217 21.75 14.625V11.625C21.75 11.0283 21.5129 10.456 21.091 10.034C20.669 9.61205 20.0967 9.375 19.5 9.375ZM6.75 11.4825V14.4825C6.75 14.6814 6.67098 14.8722 6.53033 15.0128C6.38968 15.1535 6.19891 15.2325 6 15.2325H4.5C4.30109 15.2325 4.11032 15.1535 3.96967 15.0128C3.82902 14.8722 3.75 14.6814 3.75 14.4825V11.4825C3.75 11.2836 3.82902 11.0928 3.96967 10.9522C4.11032 10.8115 4.30109 10.7325 4.5 10.7325H6C6.19891 10.7325 6.38968 10.8115 6.53033 10.9522C6.67098 11.0928 6.75 11.2836 6.75 11.4825ZM12.75 20.625H11.25C11.0511 20.625 10.8603 20.546 10.7197 20.4053C10.579 20.2647 10.5 20.0739 10.5 19.875C10.5 19.6761 10.579 19.4853 10.7197 19.3447C10.8603 19.204 11.0511 19.125 11.25 19.125H12.75C12.9489 19.125 13.1397 19.204 13.2803 19.3447C13.421 19.4853 13.5 19.6761 13.5 19.875C13.5 20.0739 13.421 20.2647 13.2803 20.4053C13.1397 20.546 12.9489 20.625 12.75 20.625ZM20.25 14.625C20.25 14.8239 20.171 15.0147 20.0303 15.1553C19.8897 15.296 19.6989 15.375 19.5 15.375H18C17.8011 15.375 17.6103 15.296 17.4697 15.1553C17.329 15.0147 17.25 14.8239 17.25 14.625V11.625C17.25 11.4261 17.329 11.2353 17.4697 11.0947C17.6103 10.954 17.8011 10.875 18 10.875H19.5C19.6989 10.875 19.8897 10.954 20.0303 11.0947C20.171 11.2353 20.25 11.4261 20.25 11.625V14.625Z" fill="#333333"/>
<path fill-rule="evenodd" clip-rule="evenodd" d="M6.57138 3.84262C8.02063 2.42091 9.96988 1.62463 12 1.625C14.0554 1.625 16.0267 2.44152 17.4801 3.89492C18.8773 5.29218 19.686 7.16802 19.7464 9.13716C20.3189 9.19384 20.8574 9.44682 21.2678 9.85723C21.7366 10.3261 22 10.962 22 11.625V14.625C22 15.288 21.7366 15.9239 21.2678 16.3928C20.7989 16.8616 20.163 17.125 19.5 17.125H19.2156C18.8411 17.9764 18.2809 18.7342 17.5753 19.3425C16.8638 19.9559 16.0237 20.4006 15.1177 20.6442C14.9639 21.1197 14.6708 21.5393 14.2747 21.8477C13.8391 22.1869 13.3034 22.3723 12.7512 22.375L12.75 22.375H11.25C10.587 22.375 9.95107 22.1116 9.48223 21.6428C9.01339 21.1739 8.75 20.538 8.75 19.875C8.75 19.212 9.01339 18.5761 9.48223 18.1072C9.95107 17.6384 10.587 17.375 11.25 17.375H12.75C13.2268 17.3754 13.6937 17.5121 14.0953 17.769C14.4338 17.9856 14.7142 18.2799 14.9138 18.6262C15.7958 18.312 16.5487 17.7156 17.0562 16.9309C16.651 16.7657 16.2944 16.4963 16.024 16.1474C15.6865 15.7119 15.5022 15.177 15.5 14.626L15.5 14.625V11.625C15.5 10.962 15.7634 10.3261 16.2322 9.85723C16.6406 9.44886 17.1757 9.19636 17.7451 9.13802C17.6858 7.69917 17.0882 6.33148 16.0659 5.30914C14.9875 4.2308 13.525 3.625 12 3.625C10.4984 3.62458 9.05609 4.2116 7.9816 5.26057C6.96508 6.25295 6.35398 7.58427 6.2608 8.99613C6.82799 9.05561 7.36081 9.30777 7.76777 9.71473C8.23661 10.1836 8.5 10.8195 8.5 11.4825V14.4825C8.5 15.1455 8.23661 15.7814 7.76777 16.2503C7.29893 16.7191 6.66304 16.9825 6 16.9825H4.5C3.83696 16.9825 3.20107 16.7191 2.73223 16.2503C2.26339 15.7814 2 15.1455 2 14.4825V11.4825C2 10.8195 2.26339 10.1836 2.73223 9.71473C3.14369 9.30328 3.68379 9.05006 4.258 8.99424C4.35358 7.05012 5.17781 5.2097 6.57138 3.84262ZM12 2.125C10.1008 2.12466 8.27727 2.86956 6.92153 4.19954C5.56578 5.52953 4.78604 7.3384 4.74995 9.23725L4.74529 9.4825H4.5C3.96957 9.4825 3.46086 9.69321 3.08579 10.0683C2.71071 10.4434 2.5 10.9521 2.5 11.4825V14.4825C2.5 15.0129 2.71071 15.5216 3.08579 15.8967C3.46086 16.2718 3.96957 16.4825 4.5 16.4825H6C6.53043 16.4825 7.03914 16.2718 7.41421 15.8967C7.78929 15.5216 8 15.0129 8 14.4825V11.4825C8 10.9521 7.78929 10.4434 7.41421 10.0683C7.03914 9.69321 6.53043 9.4825 6 9.4825H5.74399L5.75007 9.22656C5.78884 7.59482 6.46439 6.04298 7.63232 4.90279C8.80023 3.76262 10.3678 3.12456 12 3.125M12 2.125C13.9228 2.125 15.7669 2.88884 17.1265 4.24848L12 2.125ZM12 3.125C13.6576 3.12502 15.2473 3.7835 16.4194 4.95558C17.5915 6.12769 18.25 7.7174 18.25 9.375V9.625H18C17.4696 9.625 16.9609 9.83571 16.5858 10.2108C16.2107 10.5859 16 11.0946 16 11.625V14.6244C16.0019 15.0651 16.1493 15.4928 16.4192 15.8411C16.6893 16.1895 17.0669 16.439 17.4933 16.5507L17.8037 16.6319L17.649 16.9131C17.0506 18.0003 16.0503 18.8102 14.8623 19.1693L14.6544 19.2322L14.5631 19.035C14.4029 18.6889 14.1471 18.3958 13.8258 18.1902C13.5045 17.9847 13.1312 17.8753 12.7498 17.875H11.25C10.7196 17.875 10.2109 18.0857 9.83579 18.4608C9.46071 18.8359 9.25 19.3446 9.25 19.875C9.25 20.4054 9.46071 20.9141 9.83579 21.2892C10.2109 21.6643 10.7196 21.875 11.25 21.875H12.7495C13.191 21.8727 13.6192 21.7243 13.9676 21.4531C14.3161 21.1818 14.565 20.8027 14.6754 20.375L14.7128 20.2301L14.8582 20.1946C15.7412 19.9791 16.5605 19.5573 17.2489 18.9638C17.9373 18.3703 18.4752 17.6221 18.8185 16.7806L18.882 16.625H19.5C20.0304 16.625 20.5391 16.4143 20.9142 16.0392C21.2893 15.6641 21.5 15.1554 21.5 14.625V11.625C21.5 11.0946 21.2893 10.5859 20.9142 10.2108C20.5391 9.83571 20.0304 9.625 19.5 9.625H19.25V9.375C19.25 7.45218 18.4862 5.60811 17.1265 4.24848M4.5 10.9825C4.36739 10.9825 4.24021 11.0352 4.14645 11.1289C4.05268 11.2227 4 11.3499 4 11.4825V14.4825C4 14.6151 4.05268 14.7423 4.14645 14.8361C4.24021 14.9298 4.36739 14.9825 4.5 14.9825H6C6.13261 14.9825 6.25979 14.9298 6.35355 14.8361C6.44732 14.7423 6.5 14.6151 6.5 14.4825V11.4825C6.5 11.3499 6.44732 11.2227 6.35355 11.1289C6.25979 11.0352 6.13261 10.9825 6 10.9825H4.5ZM3.79289 10.7754C3.98043 10.5879 4.23478 10.4825 4.5 10.4825H6C6.26522 10.4825 6.51957 10.5879 6.70711 10.7754C6.89464 10.9629 7 11.2173 7 11.4825V14.4825C7 14.7477 6.89464 15.0021 6.70711 15.1896C6.51957 15.3771 6.26522 15.4825 6 15.4825H4.5C4.23478 15.4825 3.98043 15.3771 3.79289 15.1896C3.60536 15.0021 3.5 14.7477 3.5 14.4825V11.4825C3.5 11.2173 3.60536 10.9629 3.79289 10.7754ZM18 11.125C17.8674 11.125 17.7402 11.1777 17.6464 11.2714C17.5527 11.3652 17.5 11.4924 17.5 11.625V14.625C17.5 14.7576 17.5527 14.8848 17.6464 14.9786C17.7402 15.0723 17.8674 15.125 18 15.125H19.5C19.6326 15.125 19.7598 15.0723 19.8536 14.9786C19.9473 14.8848 20 14.7576 20 14.625V11.625C20 11.4924 19.9473 11.3652 19.8536 11.2714C19.7598 11.1777 19.6326 11.125 19.5 11.125H18ZM17.2929 10.9179C17.4804 10.7304 17.7348 10.625 18 10.625H19.5C19.7652 10.625 20.0196 10.7304 20.2071 10.9179C20.3946 11.1054 20.5 11.3598 20.5 11.625V14.625C20.5 14.8902 20.3946 15.1446 20.2071 15.3321C20.0196 15.5196 19.7652 15.625 19.5 15.625H18C17.7348 15.625 17.4804 15.5196 17.2929 15.3321C17.1054 15.1446 17 14.8902 17 14.625V11.625C17 11.3598 17.1054 11.1054 17.2929 10.9179ZM11.25 19.375C11.1174 19.375 10.9902 19.4277 10.8964 19.5214C10.8027 19.6152 10.75 19.7424 10.75 19.875C10.75 20.0076 10.8027 20.1348 10.8964 20.2286C10.9902 20.3223 11.1174 20.375 11.25 20.375H12.75C12.8826 20.375 13.0098 20.3223 13.1036 20.2286C13.1973 20.1348 13.25 20.0076 13.25 19.875C13.25 19.7424 13.1973 19.6152 13.1036 19.5214C13.0098 19.4277 12.8826 19.375 12.75 19.375H11.25ZM10.5429 19.1679C10.7304 18.9804 10.9848 18.875 11.25 18.875H12.75C13.0152 18.875 13.2696 18.9804 13.4571 19.1679C13.6446 19.3554 13.75 19.6098 13.75 19.875C13.75 20.1402 13.6446 20.3946 13.4571 20.5821C13.2696 20.7696 13.0152 20.875 12.75 20.875H11.25C10.9848 20.875 10.7304 20.7696 10.5429 20.5821C10.3554 20.3946 10.25 20.1402 10.25 19.875C10.25 19.6098 10.3554 19.3554 10.5429 19.1679Z" fill="#333333"/>
</svg>
