<svg width="80" height="80" viewBox="0 0 80 80" fill="none" xmlns="http://www.w3.org/2000/svg">
<path d="M68.4 33.825C67.071 33.2644 65.9318 32.3325 65.119 31.1409C64.3062 29.9493 63.8542 28.5486 63.8173 27.1067C63.7804 25.6647 64.16 24.2427 64.9107 23.0111C65.6615 21.7794 66.7514 20.7904 68.05 20.1625C68.196 20.0989 68.3122 19.982 68.3749 19.8357C68.4376 19.6893 68.4421 19.5245 68.3875 19.375L65.45 11.7625C65.3906 11.6086 65.3013 11.468 65.1873 11.3488C65.0733 11.2296 64.9369 11.1341 64.7858 11.0679C64.6348 11.0017 64.4721 10.966 64.3072 10.9629C64.1423 10.9598 63.9784 10.9894 63.825 11.05L5 33.75" fill="#9DE34D"/>
<path fill-rule="evenodd" clip-rule="evenodd" d="M41.8598 23.5638L40.5098 20.0763L42.8412 19.1738L44.1912 22.6613L41.8598 23.5638Z" fill="#D5F3B3"/>
<path fill-rule="evenodd" clip-rule="evenodd" d="M44.1215 29.3998L42.7715 25.8998L45.104 25.0002L46.454 28.5002L44.1215 29.3998Z" fill="#D5F3B3"/>
<path fill-rule="evenodd" clip-rule="evenodd" d="M46.0205 34.3237L45.0205 31.7237L47.3539 30.8263L48.3539 33.4263L46.0205 34.3237Z" fill="#D5F3B3"/>
<path fill-rule="evenodd" clip-rule="evenodd" d="M48.8618 20.8592C49.5056 20.6101 50.2295 20.9301 50.4786 21.5739L54.5411 32.0739C54.7902 32.7178 54.4702 33.4417 53.8264 33.6908C53.1825 33.9399 52.4587 33.6199 52.2096 32.976L48.1471 22.476C47.8979 21.8322 48.2179 21.1083 48.8618 20.8592Z" fill="#73D700"/>
<path fill-rule="evenodd" clip-rule="evenodd" d="M53.5236 19.0594C54.1673 18.8101 54.8913 19.1298 55.1406 19.7736L60.3781 33.2986C60.6274 33.9424 60.3076 34.6664 59.6638 34.9157C59.0201 35.165 58.2961 34.8452 58.0468 34.2014L52.8093 20.6764C52.56 20.0326 52.8798 19.3087 53.5236 19.0594Z" fill="#73D700"/>
<path d="M68.75 51.25C68.7439 49.3606 69.4512 47.5385 70.7305 46.148C72.0097 44.7576 73.7666 43.9011 75.65 43.75C75.8114 43.7435 75.964 43.6748 76.0759 43.5583C76.1877 43.4418 76.2501 43.2865 76.25 43.125V35C76.25 34.6685 76.1183 34.3505 75.8839 34.1161C75.6495 33.8817 75.3315 33.75 75 33.75H5C4.66848 33.75 4.35054 33.8817 4.11612 34.1161C3.8817 34.3505 3.75 34.6685 3.75 35V43.15C3.74987 43.3115 3.81228 43.4668 3.92413 43.5833C4.03599 43.6998 4.18861 43.7685 4.35 43.775C6.33912 43.775 8.24678 44.5652 9.6533 45.9717C11.0598 47.3782 11.85 49.2859 11.85 51.275C11.85 53.2641 11.0598 55.1718 9.6533 56.5783C8.24678 57.9848 6.33912 58.775 4.35 58.775C4.18861 58.7815 4.03599 58.8501 3.92413 58.9667C3.81228 59.0832 3.74987 59.2385 3.75 59.4V67.5C3.75 67.8315 3.8817 68.1495 4.11612 68.3839C4.35054 68.6183 4.66848 68.75 5 68.75H75C75.3315 68.75 75.6495 68.6183 75.8839 68.3839C76.1183 68.1495 76.25 67.8315 76.25 67.5V59.35C76.2501 59.1885 76.1877 59.0332 76.0759 58.9167C75.964 58.8002 75.8114 58.7315 75.65 58.725C73.771 58.5742 72.0176 57.7213 70.739 56.3361C69.4604 54.951 68.7502 53.1351 68.75 51.25Z" fill="#73D700"/>
<path fill-rule="evenodd" clip-rule="evenodd" d="M50 37.5V33.75H52.5V37.5H50Z" fill="#D5F3B3"/>
<path fill-rule="evenodd" clip-rule="evenodd" d="M50 43.75V40H52.5V43.75H50Z" fill="#D5F3B3"/>
<path fill-rule="evenodd" clip-rule="evenodd" d="M50 50V46.25H52.5V50H50Z" fill="#D5F3B3"/>
<path fill-rule="evenodd" clip-rule="evenodd" d="M50 56.25V52.5H52.5V56.25H50Z" fill="#D5F3B3"/>
<path fill-rule="evenodd" clip-rule="evenodd" d="M50 62.5V58.75H52.5V62.5H50Z" fill="#D5F3B3"/>
<path fill-rule="evenodd" clip-rule="evenodd" d="M50 68.75V65H52.5V68.75H50Z" fill="#D5F3B3"/>
<path fill-rule="evenodd" clip-rule="evenodd" d="M15 38.75C15 38.0596 15.5596 37.5 16.25 37.5H33.75C34.4404 37.5 35 38.0596 35 38.75C35 39.4404 34.4404 40 33.75 40H16.25C15.5596 40 15 39.4404 15 38.75Z" fill="#559C04"/>
<path fill-rule="evenodd" clip-rule="evenodd" d="M15 43.75C15 43.0596 15.5596 42.5 16.25 42.5H46.25C46.9404 42.5 47.5 43.0596 47.5 43.75C47.5 44.4404 46.9404 45 46.25 45H16.25C15.5596 45 15 44.4404 15 43.75Z" fill="#559C04"/>
<path fill-rule="evenodd" clip-rule="evenodd" d="M15 48.75C15 48.0596 15.5596 47.5 16.25 47.5H46.25C46.9404 47.5 47.5 48.0596 47.5 48.75C47.5 49.4404 46.9404 50 46.25 50H16.25C15.5596 50 15 49.4404 15 48.75Z" fill="#559C04"/>
<path fill-rule="evenodd" clip-rule="evenodd" d="M15 53.75C15 53.0596 15.5596 52.5 16.25 52.5H46.25C46.9404 52.5 47.5 53.0596 47.5 53.75C47.5 54.4404 46.9404 55 46.25 55H16.25C15.5596 55 15 54.4404 15 53.75Z" fill="#559C04"/>
<path d="M45 58.75H17.5C16.8096 58.75 16.25 59.3096 16.25 60V62.5C16.25 63.1904 16.8096 63.75 17.5 63.75H45C45.6904 63.75 46.25 63.1904 46.25 62.5V60C46.25 59.3096 45.6904 58.75 45 58.75Z" fill="#559C04"/>
<path fill-rule="evenodd" clip-rule="evenodd" d="M57.5 37.5C58.1904 37.5 58.75 38.0596 58.75 38.75V50C58.75 50.6904 58.1904 51.25 57.5 51.25C56.8096 51.25 56.25 50.6904 56.25 50V38.75C56.25 38.0596 56.8096 37.5 57.5 37.5Z" fill="#559C04"/>
<path fill-rule="evenodd" clip-rule="evenodd" d="M62.5 37.5C63.1904 37.5 63.75 38.0596 63.75 38.75V63.75C63.75 64.4404 63.1904 65 62.5 65C61.8096 65 61.25 64.4404 61.25 63.75V38.75C61.25 38.0596 61.8096 37.5 62.5 37.5Z" fill="#559C04"/>
</svg>
