<svg width="24" height="24" viewBox="0 0 24 24" fill="none" xmlns="http://www.w3.org/2000/svg">
<path d="M10 12C10 12.5523 9.55229 13 9 13C8.44772 13 8 12.5523 8 12C8 11.4477 8.44772 11 9 11C9.55229 11 10 11.4477 10 12Z" fill="#333333"/>
<path d="M15 13C15.5523 13 16 12.5523 16 12C16 11.4477 15.5523 11 15 11C14.4477 11 14 11.4477 14 12C14 12.5523 14.4477 13 15 13Z" fill="#333333"/>
<path fill-rule="evenodd" clip-rule="evenodd" d="M6.73459 2C5.73929 2 4.89545 2.73186 4.75469 3.71716L3.32612 13.7172C3.16287 14.8599 3.99549 15.8885 5.12019 15.9915L2.77001 20.0622C2.49386 20.5405 2.65774 21.1521 3.13603 21.4282C3.61432 21.7043 4.22591 21.5405 4.50206 21.0622L5.11531 20H18.8868L19.5 21.0622C19.7761 21.5405 20.3877 21.7043 20.866 21.4282C21.3443 21.1521 21.5082 20.5405 21.2321 20.0622L18.8818 15.9914C20.0055 15.8874 20.837 14.8593 20.6739 13.7172L19.2453 3.71716C19.1046 2.73186 18.2607 2 17.2654 2H6.73459ZM17.2654 4L6.73459 4L6.16316 8H17.8368L17.2654 4ZM18.1226 10H5.87745L5.30602 14L18.694 14L18.1226 10ZM6.27001 18L7.42471 16H16.5774L17.7321 18H6.27001Z" fill="#333333"/>
</svg>
