<svg width="32" height="32" viewBox="0 0 32 32" fill="none" xmlns="http://www.w3.org/2000/svg">
<path d="M15.9997 19.3333C4.59968 19.3333 -2.06699 15.8 2.13301 12C5.79968 8.66663 10.6663 6.66663 15.9997 6.66663C20.7997 6.66663 25.1997 8.26663 28.6663 11C33.533 14.8 27.3997 19.3333 15.9997 19.3333Z" fill="#FFE082"/>
<path d="M15.3339 17.3333C15.3339 21.4 12.0672 24.6667 8.00057 24.6667C3.9339 24.6667 0.667236 21.4 0.667236 17.3333C0.667236 13.2667 3.9339 10 8.00057 10C12.0672 10 15.3339 13.2667 15.3339 17.3333ZM24.0006 10C19.9339 10 16.6672 13.2667 16.6672 17.3333C16.6672 21.4 19.9339 24.6667 24.0006 24.6667C28.0672 24.6667 31.3339 21.4 31.3339 17.3333C31.3339 13.2667 28.0672 10 24.0006 10Z" fill="white"/>
<path d="M8.00057 16C7.64695 16 7.30781 16.1405 7.05776 16.3905C6.80771 16.6406 6.66724 16.9797 6.66724 17.3333C6.66724 17.687 6.80771 18.0261 7.05776 18.2761C7.30781 18.5262 7.64695 18.6667 8.00057 18.6667C8.35419 18.6667 8.69333 18.5262 8.94338 18.2761C9.19343 18.0261 9.3339 17.687 9.3339 17.3333C9.3339 16.9797 9.19343 16.6406 8.94338 16.3905C8.69333 16.1405 8.35419 16 8.00057 16Z" fill="#F44336"/>
<path d="M24.0006 16C23.6469 16 23.3078 16.1405 23.0578 16.3905C22.8077 16.6406 22.6672 16.9797 22.6672 17.3333C22.6672 17.687 22.8077 18.0261 23.0578 18.2761C23.3078 18.5262 23.6469 18.6667 24.0006 18.6667C24.3542 18.6667 24.6933 18.5262 24.9434 18.2761C25.1934 18.0261 25.3339 17.687 25.3339 17.3333C25.3339 16.9797 25.1934 16.6406 24.9434 16.3905C24.6933 16.1405 24.3542 16 24.0006 16Z" fill="#00C853"/>
<path d="M8 11.3333C11.3333 11.3333 14 14 14 17.3333C14 20.6666 11.3333 23.3333 8 23.3333C4.66667 23.3333 2 20.6666 2 17.3333C2 14 4.66667 11.3333 8 11.3333ZM8 9.33331C3.6 9.33331 0 12.9333 0 17.3333C0 21.7333 3.6 25.3333 8 25.3333C12.4 25.3333 16 21.7333 16 17.3333C16 12.9333 12.4 9.33331 8 9.33331Z" fill="#37474F"/>
<path d="M8 14.6666C9.46667 14.6666 10.6667 15.8666 10.6667 17.3333C10.6667 18.8 9.46667 20 8 20C6.53333 20 5.33333 18.8 5.33333 17.3333C5.33333 15.8666 6.53333 14.6666 8 14.6666ZM8 13.3333C5.8 13.3333 4 15.1333 4 17.3333C4 19.5333 5.8 21.3333 8 21.3333C10.2 21.3333 12 19.5333 12 17.3333C12 15.1333 10.2 13.3333 8 13.3333ZM24 11.3333C27.3333 11.3333 30 14 30 17.3333C30 20.6666 27.3333 23.3333 24 23.3333C20.6667 23.3333 18 20.6666 18 17.3333C18 14 20.6667 11.3333 24 11.3333ZM24 9.33331C19.6 9.33331 16 12.9333 16 17.3333C16 21.7333 19.6 25.3333 24 25.3333C28.4 25.3333 32 21.7333 32 17.3333C32 12.9333 28.4 9.33331 24 9.33331Z" fill="#37474F"/>
<path d="M24 14.6666C25.4667 14.6666 26.6667 15.8666 26.6667 17.3333C26.6667 18.8 25.4667 20 24 20C22.5333 20 21.3333 18.8 21.3333 17.3333C21.3333 15.8666 22.5333 14.6666 24 14.6666ZM24 13.3333C21.8 13.3333 20 15.1333 20 17.3333C20 19.5333 21.8 21.3333 24 21.3333C26.2 21.3333 28 19.5333 28 17.3333C28 15.1333 26.2 13.3333 24 13.3333ZM16 17.3333L14 22L16 24.6666V17.3333ZM16 17.3333L18 22L16 24.6666V17.3333ZM24 9.33331H32C32 9.33331 29.9333 11.8666 30 14C28.0667 10.6666 24 9.33331 24 9.33331ZM8 9.33331H0C0 9.33331 2.06667 11.8666 2 14C3.93333 10.6666 8 9.33331 8 9.33331Z" fill="#37474F"/>
<path d="M16.0001 6.66663C11.8001 6.66663 7.86676 7.93329 4.6001 10.1333C5.6001 9.59996 6.8001 9.33329 8.0001 9.33329C8.26676 9.33329 8.53343 9.33329 8.86676 9.39996C11.1334 8.46663 13.5334 7.99996 16.0001 7.99996C18.4668 7.99996 20.9334 8.46663 23.1334 9.39996C23.4001 9.39996 23.6668 9.33329 24.0001 9.33329C25.2001 9.33329 26.4001 9.59996 27.4001 10.1333C24.1334 7.93329 20.2001 6.66663 16.0001 6.66663Z" fill="#37474F"/>
</svg>
