<svg width="40" height="40" viewBox="0 0 40 40" fill="none" xmlns="http://www.w3.org/2000/svg">
<path d="M14.1668 28.3333C14.6089 28.3333 15.0328 28.1577 15.3453 27.8451C15.6579 27.5325 15.8335 27.1086 15.8335 26.6666C15.8417 26.5556 15.8417 26.4442 15.8335 26.3333C15.8153 26.2288 15.7815 26.1277 15.7335 26.0333C15.697 25.927 15.6466 25.8262 15.5835 25.7333L15.3835 25.4833C15.225 25.3315 15.0381 25.2126 14.8335 25.1333C14.5219 24.9866 14.1726 24.94 13.8335 24.9999L13.5335 25.0999L13.2335 25.2499C13.1462 25.3115 13.0627 25.3782 12.9835 25.4499L12.7835 25.6999C12.7204 25.7928 12.67 25.8937 12.6335 25.9999C12.5854 26.0944 12.5517 26.1955 12.5335 26.2999C12.5253 26.4109 12.5253 26.5223 12.5335 26.6333C12.5335 27.0753 12.7091 27.4992 13.0217 27.8118C13.3342 28.1243 13.7581 28.2999 14.2002 28.2999L14.1668 28.3333ZM27.5002 28.3333C27.9422 28.3333 28.3661 28.1577 28.6787 27.8451C28.9912 27.5325 29.1668 27.1086 29.1668 26.6666C29.175 26.5556 29.175 26.4442 29.1668 26.3333C29.1486 26.2288 29.1149 26.1277 29.0668 26.0333C29.0303 25.927 28.9799 25.8262 28.9168 25.7333L28.7168 25.4833C28.5548 25.336 28.3688 25.2177 28.1668 25.1333C27.7611 24.9666 27.3059 24.9666 26.9002 25.1333C26.6982 25.2177 26.5122 25.336 26.3502 25.4833L26.1502 25.7333C26.0871 25.8262 26.0366 25.927 26.0002 26.0333C25.9521 26.1277 25.9184 26.2288 25.9002 26.3333C25.892 26.4442 25.892 26.5556 25.9002 26.6666C25.902 27.1038 26.0756 27.5228 26.3835 27.8333C26.6789 28.1355 27.078 28.3142 27.5002 28.3333ZM22.5002 8.33325H19.1668C18.7248 8.33325 18.3009 8.50885 17.9883 8.82141C17.6758 9.13397 17.5002 9.55789 17.5002 9.99992C17.5002 10.4419 17.6758 10.8659 17.9883 11.1784C18.3009 11.491 18.7248 11.6666 19.1668 11.6666H22.5002C22.9422 11.6666 23.3661 11.491 23.6787 11.1784C23.9912 10.8659 24.1668 10.4419 24.1668 9.99992C24.1668 9.55789 23.9912 9.13397 23.6787 8.82141C23.3661 8.50885 22.9422 8.33325 22.5002 8.33325ZM30.8335 3.33325H10.8335C9.50741 3.33325 8.23564 3.86004 7.29796 4.79772C6.36028 5.7354 5.8335 7.00717 5.8335 8.33325V28.3333C5.8364 29.3648 6.15829 30.3703 6.75506 31.2117C7.35183 32.0531 8.19425 32.6894 9.16683 33.0333V34.9999C9.16683 35.4419 9.34242 35.8659 9.65498 36.1784C9.96755 36.491 10.3915 36.6666 10.8335 36.6666C11.2755 36.6666 11.6994 36.491 12.012 36.1784C12.3246 35.8659 12.5002 35.4419 12.5002 34.9999V33.3333H29.1668V34.9999C29.1668 35.4419 29.3424 35.8659 29.655 36.1784C29.9675 36.491 30.3915 36.6666 30.8335 36.6666C31.2755 36.6666 31.6994 36.491 32.012 36.1784C32.3246 35.8659 32.5002 35.4419 32.5002 34.9999V33.0333C33.4727 32.6894 34.3152 32.0531 34.9119 31.2117C35.5087 30.3703 35.8306 29.3648 35.8335 28.3333V8.33325C35.8335 7.00717 35.3067 5.7354 34.369 4.79772C33.4313 3.86004 32.1596 3.33325 30.8335 3.33325ZM32.5002 28.3333C32.5002 28.7753 32.3246 29.1992 32.012 29.5118C31.6994 29.8243 31.2755 29.9999 30.8335 29.9999H10.8335C10.3915 29.9999 9.96755 29.8243 9.65498 29.5118C9.34242 29.1992 9.16683 28.7753 9.16683 28.3333V23.3333H32.5002V28.3333ZM32.5002 19.9999H9.16683V8.33325C9.16683 7.89122 9.34242 7.4673 9.65498 7.15474C9.96755 6.84218 10.3915 6.66659 10.8335 6.66659H30.8335C31.2755 6.66659 31.6994 6.84218 32.012 7.15474C32.3246 7.4673 32.5002 7.89122 32.5002 8.33325V19.9999Z" fill="#73D700"/>
</svg>
