<svg width="32" height="32" viewBox="0 0 32 32" fill="none" xmlns="http://www.w3.org/2000/svg">
<path fill-rule="evenodd" clip-rule="evenodd" d="M3.24536 28.8686L5.04136 22.312C3.93336 20.3933 3.35069 18.216 3.35136 15.986C3.35469 9.00931 9.03203 3.33331 16.0094 3.33331C19.3954 3.33465 22.5727 4.65265 24.9627 7.04398C27.352 9.43598 28.668 12.6146 28.6667 15.996C28.664 22.9726 22.9854 28.6493 16.0094 28.6493H16.004C13.886 28.6486 11.804 28.1173 9.95536 27.1086L3.24536 28.8686Z" fill="white"/>
<path fill-rule="evenodd" clip-rule="evenodd" d="M3.24564 29.202C3.15764 29.202 3.07231 29.1673 3.00897 29.1033C2.92564 29.0187 2.89297 28.8953 2.92431 28.7813L4.68364 22.3573C3.59297 20.42 3.01764 18.22 3.01897 15.9867C3.02164 8.82533 8.84897 3 16.0096 3C19.483 3.00133 22.7463 4.354 25.199 6.80867C27.6516 9.264 29.0016 12.5267 29.0003 15.996C28.9976 23.1567 23.1696 28.9827 16.0096 28.9827C13.8836 28.982 11.7803 28.4573 9.91364 27.4647L3.33031 29.1907C3.30231 29.1987 3.27431 29.202 3.24564 29.202Z" fill="white"/>
<path fill-rule="evenodd" clip-rule="evenodd" d="M16.0091 3.33329C19.3951 3.33463 22.5724 4.65263 24.9624 7.04396C27.3517 9.43596 28.6677 12.6146 28.6664 15.996C28.6637 22.9726 22.9851 28.6493 16.0091 28.6493H16.0037C13.8857 28.6486 11.8037 28.1173 9.95507 27.1086L3.24507 28.8686L5.04107 22.312C3.93307 20.3933 3.3504 18.216 3.35107 15.986C3.3544 9.00929 9.03173 3.33329 16.0091 3.33329ZM16.0091 2.66663C8.66507 2.66663 2.68773 8.64129 2.6844 15.986C2.68373 18.2306 3.2504 20.4426 4.32507 22.4006L2.60173 28.6933C2.53907 28.9233 2.60307 29.1686 2.77107 29.338C2.89773 29.466 3.06907 29.536 3.24507 29.536C3.30173 29.536 3.3584 29.5286 3.4144 29.514L9.8724 27.8206C11.7577 28.7993 13.8711 29.316 16.0037 29.3166C23.3531 29.3166 29.3304 23.3413 29.3337 15.9966C29.3351 12.4373 27.9504 9.09063 25.4351 6.57329C22.9184 4.05529 19.5711 2.66796 16.0091 2.66663Z" fill="#CFD8DC"/>
<path fill-rule="evenodd" clip-rule="evenodd" d="M23.4509 8.5547C21.4643 6.5667 18.8236 5.47137 16.0129 5.4707C10.2103 5.4707 5.49095 10.188 5.48828 15.9867C5.48762 17.974 6.04362 19.9087 7.09695 21.584L7.34761 21.982L6.28428 25.8627L10.2663 24.8187L10.6509 25.0467C12.2656 26.0054 14.1176 26.512 16.0056 26.5127H16.0096C21.8083 26.5127 26.5276 21.7947 26.5296 15.9954C26.5303 13.1854 25.4376 10.5427 23.4509 8.5547Z" fill="#40C351"/>
<path fill-rule="evenodd" clip-rule="evenodd" d="M12.8461 10.6967C12.6094 10.17 12.3601 10.1593 12.1341 10.15C11.9494 10.142 11.7387 10.1427 11.5281 10.1427C11.3174 10.1427 10.9747 10.222 10.6847 10.5387C10.3947 10.8553 9.57739 11.62 9.57739 13.176C9.57739 14.732 10.7107 16.236 10.8687 16.4467C11.0267 16.6573 13.0567 19.9527 16.2714 21.2207C18.9427 22.274 19.4867 22.0647 20.0667 22.012C20.6467 21.9593 21.9381 21.2473 22.2014 20.5087C22.4647 19.77 22.4647 19.1373 22.3861 19.0053C22.3067 18.8733 22.0961 18.7947 21.7801 18.636C21.4641 18.4773 19.9087 17.7127 19.6187 17.6073C19.3287 17.502 19.1181 17.4493 18.9067 17.766C18.6961 18.082 18.0901 18.7947 17.9054 19.0053C17.7207 19.2167 17.5361 19.2433 17.2201 19.0847C16.9041 18.926 15.8854 18.5927 14.6767 17.5153C13.7367 16.6773 13.1021 15.642 12.9174 15.3253C12.7327 15.0093 12.8974 14.838 13.0561 14.68C13.1981 14.538 13.3721 14.3107 13.5307 14.126C13.6887 13.9413 13.7414 13.8093 13.8467 13.5987C13.9521 13.3873 13.8994 13.2027 13.8201 13.0447C13.7421 12.886 13.1274 11.322 12.8461 10.6967Z" fill="white"/>
</svg>
