<svg width="40" height="40" viewBox="0 0 40 40" fill="none" xmlns="http://www.w3.org/2000/svg">
<path d="M19.9999 10.8332C20.6592 10.8332 21.3037 10.6377 21.8518 10.2714C22.4 9.90513 22.8272 9.38454 23.0795 8.77545C23.3318 8.16636 23.3978 7.49614 23.2692 6.84954C23.1406 6.20293 22.8231 5.60899 22.357 5.14282C21.8908 4.67664 21.2968 4.35917 20.6502 4.23055C20.0036 4.10194 19.3334 4.16795 18.7243 4.42024C18.1152 4.67253 17.5946 5.09977 17.2284 5.64794C16.8621 6.1961 16.6666 6.84057 16.6666 7.49984C16.6666 8.38389 17.0178 9.23174 17.6429 9.85686C18.268 10.482 19.1159 10.8332 19.9999 10.8332ZM32.4999 34.1665H30.8333V25.8332C30.8333 25.3911 30.6577 24.9672 30.3451 24.6547C30.0326 24.3421 29.6086 24.1665 29.1666 24.1665H20.8333V20.8332H29.1666C29.6086 20.8332 30.0326 20.6576 30.3451 20.345C30.6577 20.0325 30.8333 19.6085 30.8333 19.1665C30.8333 18.7245 30.6577 18.3006 30.3451 17.988C30.0326 17.6754 29.6086 17.4998 29.1666 17.4998H20.8333V14.1665C20.8333 13.7245 20.6577 13.3006 20.3451 12.988C20.0326 12.6754 19.6086 12.4998 19.1666 12.4998C18.7246 12.4998 18.3007 12.6754 17.9881 12.988C17.6755 13.3006 17.4999 13.7245 17.4999 14.1665V25.8332C17.4999 26.2752 17.6755 26.6991 17.9881 27.0117C18.3007 27.3242 18.7246 27.4998 19.1666 27.4998H27.4999V35.8332C27.4999 36.2752 27.6755 36.6991 27.9881 37.0117C28.3006 37.3242 28.7246 37.4998 29.1666 37.4998H32.4999C32.942 37.4998 33.3659 37.3242 33.6784 37.0117C33.991 36.6991 34.1666 36.2752 34.1666 35.8332C34.1666 35.3911 33.991 34.9672 33.6784 34.6547C33.3659 34.3421 32.942 34.1665 32.4999 34.1665ZM21.1666 31.4998C20.3271 32.6192 19.1566 33.4461 17.8211 33.8633C16.4855 34.2805 15.0525 34.2669 13.7251 33.8244C12.3977 33.3819 11.2431 32.533 10.425 31.3979C9.60685 30.2628 9.1666 28.8991 9.1666 27.4998C9.16857 26.2044 9.54792 24.9376 10.2583 23.8542C10.9687 22.7709 11.9793 21.918 13.1666 21.3998C13.5733 21.223 13.893 20.8919 14.0556 20.4793C14.2181 20.0668 14.2101 19.6065 14.0333 19.1998C13.8565 18.7932 13.5253 18.4734 13.1128 18.3109C12.7002 18.1483 12.2399 18.1564 11.8333 18.3332C10.4308 18.9456 9.18754 19.8717 8.19932 21.0403C7.21111 22.2088 6.50428 23.5886 6.13327 25.0733C5.76226 26.558 5.73697 28.1081 6.05935 29.6041C6.38174 31.1002 7.04318 32.5023 7.99276 33.7024C8.94233 34.9026 10.1547 35.8688 11.5365 36.5266C12.9182 37.1844 14.4326 37.5163 15.9628 37.4968C17.4931 37.4772 18.9984 37.1067 20.3629 36.4137C21.7274 35.7208 22.9147 34.7239 23.8333 33.4998C24.0985 33.1462 24.2124 32.7017 24.1499 32.2641C24.0873 31.8265 23.8536 31.4317 23.4999 31.1665C23.1463 30.9013 22.7018 30.7874 22.2642 30.8499C21.8266 30.9124 21.4318 31.1462 21.1666 31.4998Z" fill="#73D700"/>
</svg>
