<svg width="40" height="40" viewBox="0 0 40 40" fill="none" xmlns="http://www.w3.org/2000/svg">
<path fill-rule="evenodd" clip-rule="evenodd" d="M20.0665 18.3369C16.169 18.3369 12.3947 19.7028 9.39988 22.1973C8.69261 22.7864 7.64169 22.6906 7.05259 21.9833C6.46348 21.2761 6.55928 20.2251 7.26655 19.636C10.8603 16.6427 15.3895 15.0035 20.0665 15.0035C24.7436 15.0035 29.2728 16.6427 32.8665 19.636C33.5738 20.2251 33.6696 21.2761 33.0805 21.9833C32.4914 22.6906 31.4405 22.7864 30.7332 22.1973C27.7384 19.7028 23.9641 18.3369 20.0665 18.3369Z" fill="#73D700"/>
<path fill-rule="evenodd" clip-rule="evenodd" d="M20 10.0045C13.9129 10.0045 8.03501 12.2253 3.46872 16.2503C2.77821 16.859 1.72503 16.7927 1.11636 16.1021C0.507699 15.4116 0.574046 14.3584 1.26455 13.7498C6.43968 9.18806 13.1013 6.67114 20 6.67114C26.8986 6.67114 33.5603 9.18806 38.7354 13.7498C39.4259 14.3584 39.4922 15.4116 38.8836 16.1021C38.2749 16.7927 37.2217 16.859 36.5312 16.2503C31.9649 12.2253 26.087 10.0045 20 10.0045Z" fill="#73D700"/>
<path fill-rule="evenodd" clip-rule="evenodd" d="M20.0083 26.6688C18.2787 26.6688 16.5919 27.207 15.1819 28.2087C14.4315 28.7418 13.391 28.5657 12.8579 27.8153C12.3248 27.0649 12.5009 26.0245 13.2513 25.4913C15.2253 24.0889 17.5868 23.3354 20.0083 23.3354C22.4297 23.3354 24.7912 24.0889 26.7652 25.4913C27.5156 26.0245 27.6917 27.0649 27.1586 27.8153C26.6255 28.5657 25.585 28.7418 24.8347 28.2087C23.4247 27.207 21.7379 26.6688 20.0083 26.6688Z" fill="#73D700"/>
<path fill-rule="evenodd" clip-rule="evenodd" d="M18.3333 33.3333C18.3333 32.4128 19.0794 31.6666 19.9999 31.6666H20.0166C20.9371 31.6666 21.6833 32.4128 21.6833 33.3333C21.6833 34.2538 20.9371 35 20.0166 35H19.9999C19.0794 35 18.3333 34.2538 18.3333 33.3333Z" fill="#73D700"/>
</svg>
