<svg width="32" height="32" viewBox="0 0 32 32" fill="none" xmlns="http://www.w3.org/2000/svg">
<path d="M28.8006 22.6C28.5339 24 27.4006 25.0667 26.0006 25.2667C23.8006 25.6 20.1339 26 16.0006 26C11.9339 26 8.26724 25.6 6.00057 25.2667C4.60057 25.0667 3.46724 24 3.20057 22.6C2.9339 21.0667 2.66724 18.8 2.66724 16C2.66724 13.2 2.9339 10.9333 3.20057 9.4C3.46724 8 4.60057 6.93333 6.00057 6.73333C8.20057 6.4 11.8672 6 16.0006 6C20.1339 6 23.7339 6.4 26.0006 6.73333C27.4006 6.93333 28.5339 8 28.8006 9.4C29.0672 10.9333 29.4006 13.2 29.4006 16C29.3339 18.8 29.0672 21.0667 28.8006 22.6Z" fill="#FF3D00"/>
<path d="M13.3328 20.6667V11.3334L21.3328 16L13.3328 20.6667Z" fill="white"/>
</svg>
