<svg width="32" height="32" viewBox="0 0 32 32" fill="none" xmlns="http://www.w3.org/2000/svg">
<path d="M9.99943 24V4.55135L9.1921 4.01068C5.75943 5.38868 3.33276 8.74135 3.33276 12.6667V19.3333C3.33276 24.488 7.51143 28.6667 12.6661 28.6667H19.3328C22.4808 28.6667 25.2548 27.1013 26.9441 24.7127V24H9.99943Z" fill="#2962FF"/>
<path d="M19.3328 3.33337H12.6661C11.4361 3.33337 10.2654 3.57737 9.1901 4.00937C6.9681 6.16671 5.33276 9.68537 5.33276 12.6667C5.33276 17.1807 5.95676 19.8234 7.80743 22.4047C7.95143 22.6054 8.04543 22.84 8.0581 23.086C8.08676 23.6427 7.9721 24.6627 6.96876 25.5807C6.86076 25.6794 6.92943 25.86 7.07543 25.866C7.70343 25.8934 8.97076 25.8567 10.2734 25.2814C10.6448 25.1174 11.0674 25.146 11.4261 25.3367C13.6348 26.5094 16.2214 26.6667 18.6661 26.6667C21.7834 26.6667 24.8921 25.9734 26.9441 24.7227C28.0248 23.1994 28.6661 21.3427 28.6661 19.3334V12.6667C28.6661 7.51204 24.4874 3.33337 19.3328 3.33337Z" fill="white"/>
<path d="M24.5 18C23.122 18 22 16.878 22 15.5C22 14.122 23.122 13 24.5 13C25.878 13 27 14.122 27 15.5C27 16.878 25.878 18 24.5 18ZM24.5 14C23.6733 14 23 14.6733 23 15.5C23 16.3267 23.6733 17 24.5 17C25.3267 17 26 16.3267 26 15.5C26 14.6733 25.3267 14 24.5 14Z" fill="#2962FF"/>
<path d="M21 18H20.3333C20.1493 18 20 17.8507 20 17.6667V12H21V18Z" fill="#2962FF"/>
<path d="M18 13.1667V13.5127C17.5807 13.1953 17.0647 13 16.5 13C15.122 13 14 14.122 14 15.5C14 16.878 15.122 18 16.5 18C17.0647 18 17.5807 17.8047 18 17.4873V17.6667C18 17.8507 18.1493 18 18.3333 18H19V13.1667H18ZM16.5 17C15.6733 17 15 16.3267 15 15.5C15 14.6733 15.6733 14 16.5 14C17.3267 14 18 14.6733 18 15.5C18 16.3267 17.3267 17 16.5 17Z" fill="#2962FF"/>
<path d="M14.1667 12H8.83333V13H12.3807L8.66667 17.3333H8.684C8.57533 17.474 8.5 17.642 8.5 17.8333V18H13.5C13.684 18 13.8333 17.8507 13.8333 17.6667V17H10.286L14 12.6667H13.9827C14.0913 12.526 14.1667 12.358 14.1667 12.1667V12Z" fill="#2962FF"/>
</svg>
